<?xml version="1.0" encoding="utf-8"?>
<!-- Generator: Adobe Illustrator 21.1.0, SVG Export Plug-In . SVG Version: 6.00 Build 0)  -->
<svg version="1.1" id="Layer_1" xmlns="http://www.w3.org/2000/svg" xmlns:xlink="http://www.w3.org/1999/xlink" x="0px" y="0px"
	 viewBox="0 0 1366 1536" style="enable-background:new 0 0 1366 1536;" xml:space="preserve">
<style type="text/css">
	.st0{fill:url(#SVGID_1_);}
	.st1{fill:#FFFFFF;}
	.st2{opacity:0.1;enable-background:new    ;}
	.st3{fill:#CF6F80;}
	.st4{fill:#31C291;}
	.st5{fill:#3F3D56;}
	.st6{fill:#512E4E;}
	.st7{opacity:0.1;}
	.st8{fill:#EA4955;}
	.st9{fill:#FFB8B8;}
	.st10{fill:#2F2E41;}
	.st11{fill:#E6E8EC;}
	.st12{opacity:0.2;fill:#31C291;enable-background:new    ;}
	.st13{fill:#736E9E;}
	.st14{opacity:3.000000e-02;enable-background:new    ;}
	.st15{fill:#9F616A;}
</style>
<linearGradient id="SVGID_1_" gradientUnits="userSpaceOnUse" x1="182.2973" y1="1889.7531" x2="182.2973" y2="2167.9783" gradientTransform="matrix(1 0 0 -1 -47.24 2225.27)">
	<stop  offset="0" style="stop-color:#808080;stop-opacity:0.25"/>
	<stop  offset="0.54" style="stop-color:#808080;stop-opacity:0.12"/>
	<stop  offset="1" style="stop-color:#808080;stop-opacity:0.1"/>
</linearGradient>
<path class="st0" d="M182.7,156.9c0,0-1.8-0.2-1.8-2.8s-1.3-7.5-1.3-7.5l0,0c0,0-1.1-8.4-2.6-9.8c-1.5-1.3-3.5-9.2-3.5-9.2
	s-0.3-4.2-1-5.2c-0.7-0.9-1.6-3.2-3-6.4c-1.4-3.2-7-5.4-7-5.4s-10.3-6-13.2-7.9l0,0c-0.3-0.2-0.5-0.4-0.7-0.5
	c-0.5-0.7-2.7-0.7-2.7-0.7c-0.2-1.4-0.5-3.1-0.5-4.7c0-0.2,0-0.3,0-0.5c3.3-1.9,5.7-4.9,6.9-8.5c0-0.2,0.1-0.4,0.1-0.5
	c0.4-0.1,0.7-0.4,0.9-0.8c0.3-0.6,0.3-1.3,0.6-1.8c0.4-0.6,1.1-1,1.7-1.4c1.4-1.2,1.8-3.3,1.8-5.1c0-1.5-0.3-3-0.2-4.6v-0.4
	c0-0.2,0-0.5,0.1-0.7c0.2-1.1,0.7-2.2,1-3.3s0.3-2.3-0.3-3.3c-0.9-1.4-2.8-1.7-4.6-1.9c-1.9-0.2-3.6,0-4.9-1.5
	c-0.6-0.8-1.2-1.6-1.9-2.3c-0.3-0.2-2.7-1.7-2.7-1.9c-2.4-1.1-5.1-1.3-7.7-0.6c-1.3,0.4-2.5,1-3.7,1.3c-2.8,0.7-6,0-8.4,1.5
	c-1.3,0.9-2.1,2.3-2.8,3.7c-0.6,1.2-1.2,2.3-1.9,3.4c-1,1.9-2,3.8-2.4,5.9c-0.1,0.5-0.1,0.9-0.2,1.4l0,0l0,0c0,0.2,0,0.3,0,0.5v0.4
	c0,0.2,0,0.3,0,0.5c0,0.1,0,0.2,0,0.3c0,0.1,0,0.3,0,0.5c0,0.1,0.1,0.4,0.1,0.6c0,0.1,0,0.2,0.1,0.2c0,0.1,0.1,0.3,0.2,0.5
	c0,0.1,0,0.2,0.1,0.2c0,0.2,0.1,0.3,0.2,0.5c0,0,0,0.1,0.1,0.2c0.1,0.2,0.3,0.4,0.4,0.6c0.9,1.2,2.4,2,3.4,3.1v0.1
	c0,0.1,0,0.2,0,0.4c0.1,5.1,2.8,9.8,7,12.6c0,0.2,0,0.4,0,0.5c0.1,1.4,0.1,2.7,0,4c-0.4-0.5-0.9-0.7-1.5-0.7c-0.2,0-0.4,0-0.6,0l0,0
	l0,0l0,0c-1,0.2-2.2,1.3-3.4,4.2c0,0-3.6,4-6.3,3.8s-9.6,4.2-9.6,4.2s-6.7,4.3-8.1,8.8c-0.8,2.5-1.8,5-2.9,7.4l-8.3,17.1l0,0
	l-1.3,13.4c0,0,0.9,6,0.7,7c-0.2,0.9,3.5,9.2,3.5,9.2s12,21.1,16.9,22.2l0.4-0.2c0.2,0.1,0.5,0.2,0.7,0.2l1-0.7c0,0.8,0,1.6-0.1,2.4
	c-0.7,2.1,0.3,15.7,1.4,18.4c1.2,2.7,0.7,37.9,0.7,37.9l-0.2,3.1c0,0,0,0.1,0,0.3v0.7h0.1c0.1,1,0.1,2-0.1,2.9
	c-0.4,1.4-0.6,5.2-0.6,5.2s-3.4,21.6-1.8,26c1.6,4.3,3,9.1,3,9.1s1.7,5.4,0.1,6.3s-6.2,2.5-5.2,4.7c0.9,2.1,4.1,7.7,4.6,8.5v0.5
	l-0.7,7.2c0.1,0.9,0.4,1.9,0.8,2.8c0.7,1.6,2.1,3.2,4.8,3c0.5,0,1-0.1,1.5-0.1c4.9-0.7,11-2.8,11-2.8c-0.3-0.2-0.6-0.5-0.9-0.7l0,0
	c-0.5-0.5-0.8-1.1-0.8-1.8c0.1-1.3-2.4-7.5-3-9.1c-0.1-0.2-0.1-0.4-0.1-0.4s5.6-5.8,4.7-11c0,0-6.2-3.6-4.2-5.6s5.7-7.7,5.7-7.7
	s0.2-21.3,0-24.5c-0.2-2.2-0.1-4.4,0.3-6.6c0-0.3,0.1-0.6,0.2-0.9c2.8,0.4,5.6,0.6,8.5,0.6c1,0,2.1,0,3.2,0c0,0.3,0,0.6,0,1
	c0.2,5.3,0.7,14.5,1,18c0.5,4.9,3.3,18.2,3.3,18.2s-5.3,3.4,0.9,11.9c0,0,0,3.1-0.4,3.5l0,0c-0.5,1.4-0.8,2.9-1.1,4.4
	c-0.3,1.6-0.4,3.2,0,4c1,2,7.1,1.9,7.1,1.9l0,0h0.1c2.3-0.2,4.7,0.5,6.5,1.9c2.3,1.9,11.1,1,15.9,0.5c1.9-0.2,3.1-0.5,3.1-0.5
	c0-0.2,0.1-0.5,0-0.6l0,0c0-1.2-0.9-3.7-7.2-6c0,0-5.8-3.9-5.8-7.4h-0.1h-0.4c0.5,0,0.8,0,0.8,0s-2.3-8.4-1.4-9
	c0.9-0.7-1.9-9.9-1.9-9.9s-1.6-15.5-1.7-16.6c0-0.9,0.1-1.9,0.4-2.8l-0.4-8.5c0,0-0.1-2.8,0-3.7c0-0.8-0.1-1.6-0.2-2.4
	c0-0.3-0.1-0.6-0.1-1c2.2-0.5,3.6-1.1,3.6-1.1l-0.3-29.7c1.9-3.6,2.2-11.6,2.2-17.2c0-3.6-0.2-6.3-0.2-6.3l2.5-4.2
	c0,0,0.6-5-0.4-6.1c-0.4-0.5-0.2-1,0.1-1.4c0.2-0.1,0.4-0.3,0.5-0.4c0,0,0,0,0-0.1c0.2-0.1,0.4-0.3,0.5-0.4c0,0-0.9-1.4-0.1-2
	c0.8,0.5,1.4,0.9,1.9,1.2c0,0.3-0.1,0.5-0.1,0.5l0.2-0.5c0.5,0.3,0.8,0.5,0.8,0.5s4-8,3.9-9.1c-0.1-1.2,2.7-6.1,2.7-6.1
	s0.4-2.6,1.9-3.7c1.5-1.1,1.2-8.9,1.2-8.9s0.4-4.1,1.4-5.8C184.6,159.2,182.7,156.9,182.7,156.9z M106.5,153.4l0.1,1.9
	c-0.5-0.7-0.8-1.3-0.8-1.3L106.5,153.4z"/>
<path class="st1" d="M172.7,191l-1,4.2c0,0-7.8-4-9.2-9c-1.4-5.1,2.3-7,2.3-7l7.3,3.1L172.7,191z"/>
<path class="st2" d="M172.7,191l-1,4.2c0,0-7.8-4-9.2-9c-1.4-5.1,2.3-7,2.3-7l7.3,3.1L172.7,191z"/>
<path class="st3" d="M139.6,118.4c-6-2.3-13.6-10-11.7-13.6c0.4-0.9,0.7-1.9,0.7-2.9c0.1-1.4,0.1-2.7,0-4.1
	c-0.1-2.2-0.4-4.4-0.8-6.6c0,0,18.6,0.4,17.5,3.2c-0.3,0.8-0.4,2.2-0.3,3.7c0.1,1.5,0.3,3.3,0.5,4.8c0.3,2,0.6,3.6,0.6,3.6
	s-1.1,1.6-1.8,1.7C143.8,108.4,148.2,121.7,139.6,118.4z"/>
<path class="st4" d="M131.3,263.1c-0.3,0.8-0.5,1.5-0.7,2.3c-0.4,2.2-0.5,4.4-0.3,6.6c0.2,3.2,0,24.3,0,24.3s-3.6,5.6-5.6,7.6
	s4.1,5.6,4.1,5.6c0.9,5.1-4.6,11-4.6,11c-5.6-6.7-12.3,1.7-12.3,1.7s-3.7-6.3-4.6-8.6c-0.9-2.3,3.6-3.8,5.1-4.7s-0.1-6.3-0.1-6.3
	s-1.4-4.7-2.9-9.1c-1.6-4.3,1.8-25.8,1.8-25.8s0.2-3.8,0.6-5.1c0.2-0.9,0.3-1.9,0.1-2.9c0-0.3,0-0.6-0.1-0.8s0-0.3,0-0.3v-0.1
	l2.3-4.2C114.2,254.2,132.4,260.4,131.3,263.1z"/>
<path class="st4" d="M165.5,315.5c0,0-4.1-0.1-6.2,1.8s-12.6,0.4-12.2,0s0.4-3.5,0.4-3.5c-6.1-8.4-0.9-11.8-0.9-11.8
	s-2.8-13.2-3.3-18.1c-0.4-3.4-0.8-12.6-1-17.9c-0.1-2.3-0.2-3.8-0.2-3.8l5-1l0.6-0.1l12.1-2.4c0,0,0.3,2.3,0.5,4.1
	c0.1,0.8,0.2,1.6,0.2,2.4c-0.1,0.9,0,3.7,0,3.7l0.4,8.5c-0.3,0.9-0.4,1.8-0.4,2.8c0.1,1.1,1.7,16.5,1.7,16.5s2.8,9.2,1.8,9.9
	S165.5,315.5,165.5,315.5z"/>
<path class="st2" d="M145.4,94.4c-0.3,0.8-0.4,2.2-0.3,3.7c-5.1,3.1-11.5,2.9-16.4-0.3c-0.1-2.2-0.4-4.4-0.8-6.6
	C127.9,91.3,146.5,91.7,145.4,94.4z"/>
<path class="st3" d="M152.6,84.5c0,1.6-0.3,3.3-0.8,4.8c-2.7,8.1-11.4,12.6-19.5,9.9c-6.2-2-10.5-7.8-10.7-14.3c0-0.1,0-0.2,0-0.4
	c-0.1-8.5,6.6-15.6,15.2-15.7c8.5-0.1,15.6,6.6,15.7,15.2C152.6,84.1,152.6,84.3,152.6,84.5L152.6,84.5z"/>
<path class="st2" d="M139.6,118.4c-6-2.3-13.6-10-11.7-13.6c0.4-0.9,0.7-1.9,0.7-2.9l8.2,6.7l5.1,4.2l3.8-9.8c0.3,2,0.6,3.6,0.6,3.6
	s-1.1,1.6-1.8,1.7C143.9,108.4,148.2,121.7,139.6,118.4z"/>
<polygon class="st4" points="160.7,148 153.9,262.5 145,263.1 122,196.7 125.7,117.9 126.6,101.2 136.8,109.6 141.8,113.8 
	145.8,103.7 153.2,110.1 "/>
<path class="st2" d="M131.3,263.1c-0.3,0.8-0.5,1.5-0.7,2.3c-6.5-1-12.7-3-18.7-5.8h-0.1v-0.7v-0.4l2.3-4.2
	C114.2,254.2,132.4,260.4,131.3,263.1z"/>
<path class="st2" d="M147.3,265.5c-1.7,0.3-3.3,0.5-5,0.6c-0.1-2.3-0.2-3.8-0.2-3.8l5-1L147.3,265.5z"/>
<path class="st2" d="M160.5,262.8c-3.2,0.8-8.2,1.8-12.6,1.2v-2.8l12.1-2.4C159.9,258.6,160.3,260.9,160.5,262.8z"/>
<path class="st2" d="M147.8,264.4c-18.5,3.2-35.5-5.9-35.5-5.9l0.2-3.1c0,0,0.4-34.8-0.7-37.5s-2.1-16.2-1.4-18.3
	s-2.4-33.2-2.4-33.2l-0.5-12.6l-18.2-7.4l8.1-16.9c1.1-2.4,2-4.8,2.8-7.3c1.4-4.4,8-8.7,8-8.7s6.7-4.3,9.4-4.2
	c2.7,0.2,6.1-3.8,6.1-3.8c2.6-6.6,4.9-3.6,4.9-3.6c0,0.3,0,0-0.1,0.9c-0.9,7.2,14.6,29.9,14.8,30.4l0,0l1.5,36l1.5,45.5L147.8,264.4
	z"/>
<path class="st1" d="M147.3,264.4c-18.5,3.2-35.5-5.9-35.5-5.9l0.2-3.1c0,0,0.4-34.8-0.8-37.5c-1.2-2.7-2.1-16.2-1.4-18.3
	s-2.4-33.2-2.4-33.2l-0.5-12.6l-18.2-7.4l8.1-16.9c1.1-2.4,2-4.8,2.8-7.3c1.4-4.4,8-8.7,8-8.7s6.7-4.3,9.4-4.2
	c2.7,0.2,6.1-3.8,6.1-3.8c2.6-6.6,5.4-3.6,5.4-3.6c0,0.3-0.3,0.5-0.1,0.9c2,7,14.1,29.9,14.3,30.4l0,0l1.5,36l1.5,45.5L147.3,264.4z
	"/>
<path class="st2" d="M142.3,134.2c-2-0.8-12.6-12.9-12.6-12.9v-2.8c-0.4-0.9-2.7-0.4-4.5,0.3l0.8-16.7l0.9,0.8
	C129,110,142.1,133.8,142.3,134.2z"/>
<path class="st1" d="M142.8,133.2c-2-0.8-12.6-12.9-12.6-12.9v-2.8c-0.4-0.9-2.7-0.4-4.5,0.3l0.8-16.7l0.9,0.8
	C129.4,108.9,142.6,132.8,142.8,133.2z"/>
<path class="st2" d="M112.3,193.3c0.2,0,12.9-1.3,12.9-1.3s7.6,15,7.1,18.7s-1.4,6.9-4.5,6.3c-3.1-0.6-16.5,0.5-16.5,0.5
	L112.3,193.3z"/>
<path class="st1" d="M111.8,192.3c0.2,0,12.9-1.3,12.9-1.3s7.6,15,7.1,18.7s-1.4,6.9-4.5,6.3s-16.5,0.5-16.5,0.5L111.8,192.3z"/>
<path class="st3" d="M121.4,185.2c0,0,11.6,6.2,11.8,8.1c0.2,1.9-5.9-0.8-7.2-1.2c-0.9-0.2-1.8-0.4-2.7-0.4l-8.9,0.2L121.4,185.2z"
	/>
<circle class="st2" cx="139.1" cy="133.8" r="1.2"/>
<circle class="st5" cx="139.1" cy="133.3" r="1.2"/>
<circle class="st2" cx="141.3" cy="186.6" r="1.2"/>
<circle class="st5" cx="141.3" cy="186.1" r="1.2"/>
<circle class="st2" cx="140.3" cy="160.2" r="1.2"/>
<circle class="st5" cx="140.3" cy="159.7" r="1.2"/>
<path class="st1" d="M168.4,191.6c0,0,0.8,1.3,0,1.8s0.1,2,0.1,2s-2.1,1.2-1.2,2.3c0.9,1.1,0.3,6,0.3,6l-2.5,4.1
	c0,0,0.1,2.7,0.2,6.2c0,5.6-0.3,13.5-2.2,17.1l0.3,29.5c0,0-8.7,3.2-16,2.2l-1.1-47.3c0,0,1.6-26.8,2.2-32c0.4-2.7,0.5-5.4,0.4-8.1
	c0,0-0.2-8-1.1-11.8c0,0-0.9-16.2-1-20.7c0-2.2,0.1-8.4,0.2-14.4c0.1-6.5,0.3-12.6,0.3-12.6l-1.6-13.1c0,0,1.6-0.2,2.2,0.5
	c0.2,0.2,0.5,0.4,0.7,0.5l0,0c2.8,1.9,12.9,7.9,12.9,7.9s5.6,2.2,6.9,5.4c1.4,3.2,2.3,5.4,2.9,6.3c0.6,0.9,1,5.1,1,5.1
	s1.9,7.8,3.4,9.1s2.6,9.8,2.6,9.8l-13.2,10.4c0,0-1.2,17.3-1.4,17.9C163.5,176.4,168.4,191.6,168.4,191.6z"/>
<path class="st1" d="M168.9,191.6c0,0,0.8,1.3,0,1.8s0.1,2,0.1,2s-2.1,1.2-1.2,2.3c0.9,1.1,0.3,6,0.3,6l-2.5,4.1
	c0,0,0.1,2.7,0.2,6.2c0,5.6-0.3,13.5-2.2,17.1l0.2,29.5c0,0-8.8,3.2-16,2.2l-1-47.2c0,0,1.6-26.8,2.2-32c0.4-2.7,0.5-5.4,0.4-8.1
	c0,0-0.2-8-1.1-11.8c0,0-0.9-16.2-1-20.7c0-2.2,0.1-8.4,0.2-14.4c0.1-6.5,0.3-12.6,0.3-12.6l-2.2-13.2c0,0,2.2,0,2.7,0.7
	c0.2,0.2,0.5,0.4,0.7,0.5l0,0c2.8,1.9,12.9,7.9,12.9,7.9s5.6,2.2,6.9,5.4c1.4,3.2,2.3,5.4,2.9,6.3c0.6,0.9,1,5.1,1,5.1
	s1.9,7.8,3.4,9.1s2.6,9.7,2.6,9.7l-13.2,10.4c0,0-1.2,17.3-1.4,17.9C163.9,176.4,168.9,191.6,168.9,191.6z"/>
<path class="st2" d="M153.1,119.9l1.2,3.5l-6.3,6.3c0.1-6.5,0.3-12.6,0.3-12.6l-2.2-13.2c0,0,2.2,0,2.7,0.7c0.2,0.2,0.5,0.4,0.7,0.5
	l0,0l5.3,15.4L153.1,119.9z"/>
<path class="st1" d="M152.6,118.9l1.2,3.5l-6.3,6.3c0.1-6.5,0.3-12.6,0.3-12.6l-2.2-13.2c0,0,2.2,0,2.7,0.7c0.2,0.2,0.5,0.4,0.7,0.5
	l0,0l5.3,15.4L152.6,118.9z"/>
<path class="st2" d="M152.6,84.5c0,1.6-0.3,3.3-0.8,4.8c-0.2,0-0.4,0-0.5-0.1c-0.1-4.1-2.1-7.9-4.6-11.1c-0.7-1-1.5-1.9-2.5-2.6
	c-0.9-0.7-2.2-1.1-3.4-0.9c-1.4,0.2-2.5,1.1-3.9,1.2c-1.8,0.1-3.4-1.1-5.2-1.2c-1.5,0-2.9,0.7-3.8,1.8c-0.9,1.1-1.6,2.4-2,3.8
	c-0.7,2.1-1.1,4.3-1.1,6.6c0,1.3-0.1,2.8-1.3,3.3c0.2-1.9-0.5-3.7-1.7-5.1l0,0c0-0.1,0-0.2,0-0.4c-0.1-8.5,6.6-15.6,15.2-15.7
	c8.5-0.1,15.6,6.6,15.7,15.2C152.6,84.1,152.6,84.3,152.6,84.5L152.6,84.5z"/>
<path class="st6" d="M143.5,59.9c-2.3-1.1-5-1.3-7.5-0.6c-1.3,0.4-2.4,0.9-3.7,1.3c-2.7,0.6-5.9,0-8.2,1.5c-1.3,0.9-2.1,2.3-2.8,3.7
	l-1.8,3.4c-1,1.9-2,3.8-2.4,5.9s-0.2,4.4,1.1,6.1c0.9,1.2,2.3,2,3.4,3.1c1.3,1.4,1.9,3.3,1.7,5.1c1.2-0.5,1.3-2,1.3-3.3
	c0-2.3,0.5-4.5,1.1-6.6c0.4-1.4,1.1-2.7,2-3.8c0.9-1.1,2.3-1.8,3.8-1.8c1.8,0,3.4,1.3,5.2,1.2c1.4-0.1,2.6-1,3.9-1.2
	c1.2-0.1,2.4,0.2,3.4,0.9c0.9,0.7,1.8,1.6,2.5,2.6c2.5,3.3,4.5,7,4.6,11.1c0.5,0.4,1.3-0.1,1.5-0.7s0.3-1.3,0.6-1.8
	c0.4-0.6,1.1-1,1.6-1.4c1.4-1.2,1.8-3.3,1.7-5.1c0-1.9-0.4-3.7,0-5.6c0.2-1.1,0.7-2.2,0.9-3.3s0.3-2.3-0.3-3.3
	c-0.9-1.4-2.8-1.7-4.5-1.8c-1.9-0.2-3.6,0-4.8-1.5c-0.5-0.8-1.2-1.6-1.9-2.3C146,61.5,143.5,60,143.5,59.9z"/>
<path class="st2" d="M94.4,155.2l-4.7-8.7L88.2,160c0,0,0.8,6,0.7,6.9c-0.1,0.9,3.4,9.1,3.4,9.1s11.8,21,16.6,22.1l16.3-11.7
	l-4.3-5.5c0,0-1.5-0.6-1.9,0c0,0-8-13.8-8.9-14.8c-0.8-1-0.7-3-0.7-3s-1.3-1.3-0.8-2.6s-2.4-5.6-2.4-5.6l2.6-2.4L94.4,155.2z"/>
<path class="st1" d="M90,145.4l-1.3,1l-1.5,13.5c0,0,0.8,6,0.7,6.9s3.4,9.1,3.4,9.1s11.8,21,16.6,22.1l16.3-11.7l-4.3-5.5
	c0,0-1.5-0.6-1.9,0c0,0-8-13.8-8.9-14.8c-0.8-1-0.7-3-0.7-3s-1.3-1.3-0.8-2.6s-2.4-5.6-2.4-5.6l2.6-2.4L90,145.4z"/>
<path class="st2" d="M167.3,198.2c0.9,1.1,0.3,6,0.3,6l-2.5,4.1c0,0,0.1,2.7,0.2,6.2l-4.2,1.3c-1.3,0.4-2.7-0.3-3.1-1.6
	c-0.1-0.3-0.1-0.5-0.1-0.8l0.7-23.3l9.8,3.7c-0.8,0.6,0.1,2,0.1,2S166.4,197.1,167.3,198.2z"/>
<path class="st1" d="M167.8,197.7c0.9,1.1,0.3,6,0.3,6l-2.5,4.1c0,0,0.1,2.7,0.2,6.2l-4.3,1.4c-1.3,0.4-2.7-0.3-3.1-1.6
	c-0.1-0.3-0.1-0.5-0.1-0.8l0.7-23.4l9.8,3.7c-0.9,0.6,0.1,2,0.1,2S166.9,196.6,167.8,197.7z"/>
<path class="st3" d="M171.1,186.6c0,0-0.7,4.2-2.3,4.5c-1.6,0.2-2.4,6.9-4.1,6.6s-0.5-6.1-0.5-7.3s-1.8-5.9-0.4-7
	c1.4-1.1,5.8,0,5.8,0L171.1,186.6z"/>
<path class="st2" d="M174.6,153.9l3.1-6.3c0,0,1.3,4.8,1.3,7.4c0,2.6,1.8,2.8,1.8,2.8s1.9,2.3,0.9,3.9s-1.4,5.7-1.4,5.7
	s0.3,7.8-1.2,8.9c-1.5,1.1-1.8,3.7-1.8,3.7s-2.8,4.9-2.7,6.1c0.1,1.1-3.8,9.1-3.8,9.1s1.9-9.8-9.2-14c0,0-0.1-3.3,0.7-4.2
	s2.1-1.3,1.3-5.9s-0.2-10.1-0.2-11.2c0-1.1,2.5-8,2.5-8L174.6,153.9z"/>
<path class="st1" d="M176,146.7l2.8,0.9c0,0,1.3,4.8,1.3,7.4s1.8,2.8,1.8,2.8s1.9,2.3,0.9,3.9c-1,1.6-1.4,5.7-1.4,5.7
	s0.3,7.8-1.2,8.9s-1.8,3.7-1.8,3.7s-2.8,4.9-2.7,6.1c0.1,1.1-3.8,9.1-3.8,9.1s1.9-9.8-9.2-14c0,0-0.1-3.3,0.8-4.2
	c0.9-0.9,2.1-1.3,1.3-5.9c-0.8-4.6-0.2-10.1-0.2-11.2s2.5-8,2.5-8L176,146.7z"/>
<g class="st7">
	<path d="M155.1,83.7c-0.5,0.5-1.3,0.8-1.6,1.4c-0.3,0.5-0.3,1.2-0.6,1.8s-1,1.1-1.5,0.7c-0.1-4.1-2.1-7.9-4.6-11.1
		c-0.7-1-1.5-1.9-2.5-2.6c-0.9-0.7-2.2-1.1-3.4-0.9c-1.4,0.2-2.5,1.1-3.9,1.2c-1.8,0.1-3.4-1.1-5.2-1.2c-1.5,0-2.9,0.7-3.8,1.8
		c-0.9,1.1-1.6,2.4-2,3.8c-0.7,2.1-1.1,4.3-1.1,6.6c0,1.3-0.1,2.8-1.3,3.3c0,0.3,0,0.7,0,1c1.2-0.5,1.3-2,1.3-3.3
		c0-2.3,0.5-4.5,1.1-6.6c0.4-1.4,1.1-2.7,2-3.8c0.9-1.1,2.3-1.8,3.8-1.8c1.8,0,3.4,1.3,5.2,1.2c1.4-0.1,2.6-1,3.9-1.2
		c1.2-0.1,2.4,0.2,3.4,0.9c0.9,0.7,1.8,1.6,2.5,2.6c2.5,3.3,4.5,7,4.6,11.1c0.5,0.4,1.3-0.1,1.5-0.7s0.3-1.3,0.6-1.8
		c0.4-0.6,1.1-1,1.6-1.4c1.4-1.2,1.8-3.3,1.7-5.1c0,0,0-0.1,0-0.2C156.7,81,156.3,82.6,155.1,83.7z"/>
	<path d="M121.7,83.3c-1-1.1-2.4-1.9-3.4-3.1c-0.8-1.1-1.3-2.3-1.3-3.7c-0.1,1.7,0.3,3.3,1.3,4.7c0.9,1.2,2.3,2,3.4,3.1
		c1,1.1,1.6,2.5,1.7,4C123.6,86.5,122.9,84.7,121.7,83.3z"/>
	<path d="M157.7,69.7c-0.3,1.1-0.7,2.2-0.9,3.3c-0.1,0.8-0.2,1.5-0.1,2.3c0-0.5,0-0.9,0.1-1.3c0.2-1.1,0.7-2.2,0.9-3.3
		c0.1-0.6,0.2-1.3,0.1-1.9C157.8,69.1,157.7,69.4,157.7,69.7z"/>
</g>
<path class="st8" d="M281.5,27.9h-0.4c-13.5,0-25.4,7.1-32.3,17.7c-6.9-10.5-18.8-17.7-32.3-17.7h-0.4c-21.1,0.2-38,17.3-38,38.4
	c0,12.6,5.5,30.4,16.2,45c20.4,28,54.4,52.4,54.4,52.4s34-24.4,54.4-52.4c10.8-14.7,16.3-32.5,16.3-45
	C319.5,45.2,302.5,28.1,281.5,27.9z M276.6,113.5c-3.2,0-6-1.9-7.1-4.9h-8c-1.1,0-2-0.7-2.4-1.7l-2.5-7.5l-7.8,27.3
	c-0.3,1.1-1.3,1.8-2.4,1.8h-0.1c-1.2,0-2.2-0.9-2.3-2.1l-8.1-48.6l-5.9,28.7c-0.3,1.1-1.3,1.9-2.4,1.9h-11.3c-1.4,0-2.6-1-2.6-2.4
	s1-2.6,2.4-2.6c0.1,0,0.1,0,0.2,0h9.4l8.4-38.6c0.3-1.4,1.7-2.2,3.1-1.9c1,0.2,1.8,1.1,1.9,2.1l8.2,49.5l7-24.5
	c0.3-1,1.3-1.8,2.3-1.8l0,0c1.1,0,2,0.7,2.4,1.7l4.5,13.5h6.1c1.3-4,5.6-6.1,9.6-4.8c4,1.3,6.1,5.6,4.8,9.6
	C282.8,111.4,279.9,113.5,276.6,113.5L276.6,113.5z"/>
<path class="st9" d="M1184,418.3c0,0,3.9-28.4,10.3-20.7c6.5,7.7,0,19.4,0,19.4l-5.2,6.5l-5.2-3.9L1184,418.3L1184,418.3z"/>
<path class="st4" d="M1168.5,427.4c0,0,12.9-14.2,15.5-11.6s10.3,3.9,9,9c-1.3,5.2-28.4,21.9-28.4,21.9L1168.5,427.4z"/>
<path class="st2" d="M1168.5,427.4c0,0,12.9-14.2,15.5-11.6s10.3,3.9,9,9c-1.3,5.2-28.4,21.9-28.4,21.9L1168.5,427.4z"/>
<path class="st9" d="M1095.5,426.1v10.3c0,0-1.3,23.2,6.5,21.9c7.8-1.3,3.9-20.7,3.9-20.7l-1.3-11.6h-9.1V426.1z"/>
<path class="st9" d="M1099.2,500.9c0,0-11.6,18.1-15.5,19.4c-3.9,1.3-24.5,12.9-27.1,24.5l-18.1,23.2l9,11.6c0,0,41.3-43.9,53-47.7
	c11.6-3.9,23.2-23.2,23.2-23.2L1099.2,500.9z"/>
<path class="st9" d="M1190.5,471.3c0,0,24.5,3.9,20.7,19.4c-3.9,15.5-41.3,47.8-41.3,47.8l-1.3,7.7l-14.2,2.6l-6.5-6.5l1.3-3.9
	c0,0,15.5-14.2,16.8-19.4s15.5-25.8,21.9-27.1l-9-5.2L1190.5,471.3z"/>
<path class="st10" d="M1042.3,568.1c0,0,5.2-7.7-2.6-6.5c-7.8,1.2-12.9,2.6-12.9,7.7c0,5.2,6.5,41.3,14.2,38.7
	c7.7-2.6,1.3-14.2,1.3-14.2s3.9-10.3,6.5-11.6s2.6-7.7,0-7.7C1046.2,574.5,1041.1,570.6,1042.3,568.1z"/>
<path class="st10" d="M1151.7,539.7c0,0,0-6.5-5.2,0s-7.7,11.6-2.6,15.5c5.2,3.9,23.2,12.9,23.2,12.9s19.4,3.9,16.8-5.2
	c0,0-12.9-6.5-12.9-11.6s0-14.2-3.9-11.6C1163.4,542.2,1151.7,543.5,1151.7,539.7z"/>
<path class="st10" d="M1127.6,443c0,0-18.1,2.6-16.8,28.4c0,0-23.2,23.2-16.8,31c6.4,7.8,20.7,21.9,25.8,18.1
	c5.2-3.9,20.7-33.6,20.7-33.6s36.1,12.9,42.6,6.5c6.5-6.5,12.9-21.9,12.9-21.9l-32.3-16.8L1127.6,443z"/>
<circle class="st9" cx="1177.6" cy="353.8" r="15.5"/>
<path class="st9" d="M1165.9,355.1c0,0-9,14.2-11.6,15.5s18.1,14.2,18.1,14.2s0-16.8,6.5-20.7L1165.9,355.1z"/>
<path class="st4" d="M1164.7,369.3c0,0-20.7-6.5-24.5,3.9c-3.9,10.3-12.9,29.7-11.6,42.6s3.9,10.3,0,14.2c-3.9,3.9-6.5,1.3-5.2,6.5
	s2.6,5.2,1.3,7.7c-1.3,2.6,15.5,11.6,29.7,12.9l14.2,1.3c0,0,0-23.2,2.6-28.4c2.6-5.2,7.7-15.5,7.7-19.4v-10.2
	c0-6.8-1.8-13.5-5.2-19.4l0,0C1173.7,380.9,1165.9,369.3,1164.7,369.3z"/>
<path class="st4" d="M1149.7,374.6c0,0-47.8,3.8-52.9,16.7c-5.2,12.9-7.7,38.7-2.6,38.7s11.6,2.6,12.9,0s6.5-28.4,7.7-28.4
	s40-3.9,40-3.9S1171.6,377.1,1149.7,374.6z"/>
<path class="st10" d="M1178.2,350c0,0,4.1-7.1,9.2-0.9s13.5-5.2,12.2-7.6s-5.8,0.1-13.6-2.4c-7.8-2.5-22.7-7.7-25.2,9.2
	s3.5,15.1,3.5,15.1s2.7-14.9,5.2-10.7l2.5,4.3l2.1,0.5L1178.2,350z"/>
<path class="st5" d="M225.5,759.1h2.1c0.5,0,0.9,0.4,0.9,0.9v30.1c0,0.5-0.4,0.9-0.9,0.9h-2.1c-0.5,0-0.9-0.4-0.9-0.9V760
	C224.7,759.5,225,759.1,225.5,759.1z"/>
<path class="st5" d="M99.9,873.8h1.2c0.4,0,0.6,0.3,0.6,0.6V885c0,0.4-0.3,0.6-0.6,0.6h-1.2c-0.4,0-0.6-0.3-0.6-0.6v-10.6
	C99.3,874,99.5,873.8,99.9,873.8z"/>
<path class="st5" d="M99.9,895.4h1.3c0.4,0,0.7,0.3,0.7,0.7v19.2c0,0.4-0.3,0.7-0.7,0.7h-1.3c-0.4,0-0.7-0.3-0.7-0.7v-19.2
	C99.2,895.8,99.5,895.4,99.9,895.4z"/>
<path class="st5" d="M99.9,923.3h1.3c0.4,0,0.7,0.3,0.7,0.7v19.4c0,0.4-0.3,0.7-0.7,0.7h-1.3c-0.4,0-0.7-0.3-0.7-0.7V924
	C99.2,923.6,99.5,923.3,99.9,923.3z"/>
<path class="st5" d="M111,699.6h102.4c7.4,0,13.4,6,13.4,13.4v235.7c0,7.4-6,13.4-13.4,13.4H111c-7.4,0-13.4-6-13.4-13.4V713
	C97.6,705.6,103.6,699.6,111,699.6z"/>
<path class="st11" d="M150.7,707.5h16.1c0.5,0,1,0.4,1,1v1.8c0,0.5-0.4,1-1,1h-16.1c-0.5,0-1-0.4-1-1v-1.8
	C149.7,707.9,150.2,707.5,150.7,707.5z"/>
<circle class="st11" cx="172.6" cy="709.3" r="2.1"/>
<path class="st1" d="M218.8,716.7v228.2c0,5.7-4.6,10.2-10.3,10.2h-92.6c-5.7,0-10.3-4.6-10.3-10.2V716.7c0-5.7,4.6-10.3,10.3-10.3
	l0,0h13.9v1.8c0,4.7,3.8,8.4,8.4,8.4h47.1c4.7,0,8.4-3.8,8.4-8.4l0,0v-1.8h14.8C214.2,706.5,218.8,711.1,218.8,716.7z"/>
<path class="st12" d="M219.6,810.9v77.6h-0.8v0.1H105.6v-94.8c0.7-0.8,1.5-1.7,2.2-2.6c15.9-19,37.5-24,54.2-24.5
	c11.5-0.4,22.9,2,33.7,6.7c5.7,2.5,14,5.2,23,5.5v29.3C219.3,809.8,219.6,810.9,219.6,810.9z"/>
<path class="st12" d="M219.6,810.9v77.6h-114v-50.8c4.1-1,9.7-4.9,17-15.8c8.7-13,20.5-16.4,29.7-16.8c6.3-0.2,12.5,1.4,18.5,4.6
	c6.7,3.6,19.6,8,29.4-4.7c10.8-14,16.6-2.5,18.6,3.2C219.3,809.8,219.6,810.9,219.6,810.9z"/>
<path class="st13" d="M121.6,874.3h81.5c2.5,0,4.5,2,4.5,4.5v19.5c0,2.5-2,4.5-4.5,4.5h-81.5c-2.5,0-4.5-2-4.5-4.5v-19.5
	C117.1,876.3,119.1,874.3,121.6,874.3z"/>
<rect x="101.7" y="919.6" class="st5" width="122" height="37.8"/>
<path class="st1" d="M157.5,931.8v13.4l10.5-6.7L157.5,931.8z"/>
<path class="st14" d="M257.1,798.5c-1.1-0.2-2.1-0.1-3.1,0.3c-1.2,0.5-2.6,0.5-3.7,0c-1.4-0.6-3-0.6-4.4,0.1
	c-0.4,0.2-0.8,0.3-1.3,0.3c-1.8,0-3.3-1.8-3.6-4.2c0.4-0.3,0.7-0.6,0.9-1c1.1-1.7,2.7-2.8,4.5-2.8s3.4,1.1,4.5,2.7
	c0.6,1,1.8,1.7,3,1.6l0,0C255.3,795.7,256.5,796.8,257.1,798.5z"/>
<circle class="st10" cx="1072.9" cy="1047.3" r="22.9"/>
<path class="st15" d="M1065.6,1064.2c0,0,1.2,21.3-1.2,21.3c-2.4,0,14.8,10.1,14.8,10.1l10.7-5.9v-7.1c0,0-14.2-1.8-8.3-17.2
	S1065.6,1064.2,1065.6,1064.2z"/>
<polygon class="st15" points="1015.8,1298.3 1014,1316.1 1019.9,1317.8 1024.7,1313.1 1026.5,1298.3 "/>
<polygon class="st15" points="1101.1,1308.4 1104.1,1319.6 1112.4,1325 1121.3,1320.2 1111.2,1303.6 "/>
<circle class="st15" cx="1071.2" cy="1056.2" r="17.2"/>
<path class="st15" d="M1060.8,1120.5l-4.1-1.8c0,0-7.1-4.1-7.7-12.4c-0.6-8.3,5.9-19,5.9-19l9.5-3l11.1,9.1l0.1,14.6L1060.8,1120.5z
	"/>
<path class="st15" d="M1056.7,1088.5l-2.4-1.2c0,0-11.9-0.6-13,13.6s-5.3,37.9-5.3,37.9s-9.5,16.6-8.9,34.4l-4.7,15.4
	c0,0-6.5,22.5,1.2,22.5c7.7,0,7.1-24.3,7.1-24.3s14.2-34.4,15.4-40.3c1.2-5.9,11.3-33.8,8.3-41.5S1056.7,1088.5,1056.7,1088.5z"/>
<path class="st15" d="M1065.6,1125.8v6.5c0,0,4.1,4.7,2.4,7.7s-3.6,8.9-3.6,8.9l8.3,13l27.9,2.4l5.5-37.1L1065.6,1125.8z"/>
<path class="st15" d="M1091.7,1084.4l4.7-2.4c0,0,10.1-7.1,18.4-8.3l25.5-17.2l16.6-39.7c0,0-0.6-21.3,4.1-19
	c4.7,2.4,4.1,20.7,4.1,20.7s-8.9,36.7-16.6,46.8s-35.6,26.7-35.6,26.7s-7.7,8.9-7.1,13C1106.5,1109.3,1091.7,1084.4,1091.7,1084.4z"
	/>
<path class="st10" d="M1069.7,1149c0,0-6.5-4.1-10.7,3s-11.9,8.9-16.6,30.2c-4.7,21.3-16,55.1-19,57.5s-15.4,27.3-8.3,62.2h11.9
	l10.1-50.4c0,0,32.6-40.3,35-56.9l10.7,62.2c0,0,0.6,23.7,9.5,35l9.5,22.5l12.4-5.9l-14.2-56.9c0,0,7.1-57.5,2.4-73.5l-0.7-21
	C1101.6,1157,1082.2,1157.8,1069.7,1149z"/>
<path class="st10" d="M1019.9,1313.1h-7.1c-1.2,0-10.7,7.7-6.5,11.9c4.1,4.1,10.7,11.9,10.7,11.9s23.1,2.9,23.7-1.2
	c0.6-4.1-10.1-13-10.1-13l-3-9.5C1027.7,1313.1,1021.7,1306.6,1019.9,1313.1z"/>
<path class="st10" d="M1114.2,1319c0,0-10.1-0.6-11.9-1.2c-1.8-0.6-5.3,15.4,0,16.6c5.3,1.2,27.3,3,27.3,3s17.2-0.6,16-5.3
	c-1.2-4.7-24.3-14.2-24.3-14.2S1118.3,1311.9,1114.2,1319z"/>
<path class="st4" d="M1067.4,1083.8l-3-1.8l-3.6,3c0,0,10.7,7.1,8.3,13.6s-12.4,20.1-12.4,20.1s8.9,10.1,8.9,13.6
	c0,0,23.1-8.3,40.3,0c0,0,0-11.9,2.4-14.2c2.4-2.4,3.6-10.7-2.4-17.8c-4.2-5.2-7.9-10.8-11.3-16.6l-5.9-3.6l-3.1,1
	c0,0,6,6.7,0.1,7.3C1079.8,1089.1,1070.3,1087.3,1067.4,1083.8z"/>
<path class="st10" d="M1089.6,1008.2c-2,2.2-4.8,3.7-7.8,4.1c-5.2,0.7-1.1,8.9-1.1,8.9s-1.5-3,1.5-5.5
	C1085.2,1013,1089.6,1011.5,1089.6,1008.2z"/>
<circle class="st10" cx="1079.7" cy="1022.9" r="6.4"/>
<path class="st4" d="M1087.1,1029.1c-4.9-2.6-13.4-4.6-17.9-4.5l1.1-4.4c4,2.7,12.4,4.8,17.9,4.5L1087.1,1029.1z"/>
<path class="st10" d="M1076.9,1029.5c0,0-7.8,10-23.3,12.2c-15.5,2.2-3.3,26.6-3.3,26.6s-4.4-8.9,4.4-16.7
	C1063.6,1044,1076.9,1039.5,1076.9,1029.5z"/>
<path class="st10" d="M1077.5,1028.9c0,0,4.4,15.5,11.1,17.8c6.7,2.2,3.3,25.5-7.8,27.8c0,0,9.4-12.8,3.9-22.8
	C1079.2,1041.7,1075.8,1033.9,1077.5,1028.9z"/>
<rect x="1141.1" y="1002.9" class="st10" width="40.9" height="4.7"/>
<ellipse class="st10" cx="1182" cy="1005.3" rx="3.6" ry="14.2"/>
<ellipse class="st10" cx="1141.1" cy="1005.3" rx="3.6" ry="14.2"/>
</svg>
