<?xml version="1.0" encoding="utf-8"?>
<!-- Generator: Adobe Illustrator 21.1.0, SVG Export Plug-In . SVG Version: 6.00 Build 0)  -->
<svg version="1.1" id="_x36_670c59b-7363-437f-8bc4-669e571fa4b5"
	 xmlns="http://www.w3.org/2000/svg" xmlns:xlink="http://www.w3.org/1999/xlink" x="0px" y="0px" viewBox="0 0 567 785.7"
	 style="enable-background:new 0 0 567 785.7;" xml:space="preserve">
<style type="text/css">
	.st0{fill:#F5F5F5;}
	.st1{opacity:0.1;enable-background:new    ;}
	.st2{fill:#3AD29F;}
	.st3{fill:none;stroke:#FFFFFF;stroke-width:7;stroke-linecap:round;stroke-miterlimit:10;}
	.st4{opacity:0.4;}
	.st5{opacity:0.5;}
	.st6{fill:#47E6B1;}
	.st7{opacity:0.5;fill:#4D8AF0;enable-background:new    ;}
	.st8{opacity:0.5;fill:#F55F44;enable-background:new    ;}
	.st9{opacity:0.5;fill:#47E6B1;enable-background:new    ;}
</style>
<title>choose</title>
<polygon class="st0" points="478.7,185.3 424.5,168.9 421.1,243.1 478.2,260.3 "/>
<polygon class="st0" points="96.8,69.8 96.8,145.3 421.1,243.1 424.5,168.9 "/>
<polygon class="st1" points="478.7,185.3 424.5,168.9 421.1,243.1 478.2,260.3 "/>
<polygon class="st2" points="478.7,327.4 424.5,311 421.1,385.2 478.2,402.4 "/>
<polygon class="st2" points="96.8,212 96.8,287.5 421.1,385.2 424.5,311 "/>
<polygon class="st1" points="478.7,327.4 424.5,311 421.1,385.2 478.2,402.4 "/>
<polyline class="st3" points="438.2,353.6 447.1,366.9 464.9,344.7 "/>
<g class="st4">
	<line class="st3" x1="438.7" y1="198.1" x2="456.5" y2="229.2"/>
	<line class="st3" x1="460.9" y1="202.6" x2="438.7" y2="224.8"/>
</g>
<polygon class="st0" points="478.7,460.7 424.5,444.3 421.1,518.5 478.2,535.7 "/>
<polygon class="st0" points="96.8,345.2 96.8,420.7 421.1,518.5 424.5,444.3 "/>
<polygon class="st1" points="478.7,460.7 424.5,444.3 421.1,518.5 478.2,535.7 "/>
<g class="st4">
	<line class="st3" x1="438.7" y1="473.5" x2="456.5" y2="504.6"/>
	<line class="st3" x1="460.9" y1="477.9" x2="438.7" y2="500.2"/>
</g>
<g class="st5">
	<rect x="3.5" y="110.3" class="st6" width="1.5" height="8.4"/>
	<rect y="113.7" class="st6" width="8.4" height="1.5"/>
</g>
<g class="st5">
	<rect x="528.5" y="519.3" class="st6" width="1.5" height="8.4"/>
	<rect x="525" y="522.7" class="st6" width="8.4" height="1.5"/>
</g>
<g class="st5">
	<rect x="441.9" y="411.1" class="st6" width="1.5" height="8.4"/>
	<rect x="438.5" y="414.5" class="st6" width="8.4" height="1.5"/>
</g>
<g class="st5">
	<rect x="428.8" y="512" class="st6" width="1.5" height="8.4"/>
	<rect x="425.4" y="515.4" class="st6" width="8.4" height="1.5"/>
</g>
<g class="st5">
	<rect x="385" y="645.4" class="st6" width="1.5" height="8.4"/>
	<rect x="381.6" y="648.8" class="st6" width="8.4" height="1.5"/>
</g>
<g class="st5">
	<rect x="66.6" y="240.1" class="st6" width="1.5" height="8.4"/>
	<rect x="63.2" y="243.5" class="st6" width="8.4" height="1.5"/>
</g>
<path class="st7" d="M89.7,109.4c-0.8-0.4-1.3-1.3-1-2.2c0-0.1,0-0.1,0-0.2l0,0c0-0.5-0.4-0.9-0.9-1c-0.3,0-0.6,0.1-0.8,0.4l0,0
	c0,0.1-0.1,0.1-0.1,0.2c-0.4,0.8-1.3,1.3-2.2,1h-0.2l0,0c-0.5,0-0.9,0.4-1,0.9c0,0.3,0.1,0.6,0.4,0.8l0,0c0.1,0,0.1,0.1,0.2,0.1
	c0.8,0.4,1.3,1.3,1,2.2c0,0.1,0,0.1,0,0.2l0,0c0,0.5,0.4,0.9,0.9,1c0.3,0,0.6-0.1,0.8-0.4l0,0c0-0.1,0.1-0.1,0.1-0.2
	c0.4-0.8,1.3-1.3,2.2-1h0.2l0,0c0.5,0,0.9-0.4,1-0.9c0-0.3-0.1-0.6-0.4-0.8l0,0C89.8,109.5,89.7,109.5,89.7,109.4z"/>
<path class="st7" d="M422.8,35.3c-0.8-0.4-1.3-1.3-1-2.2c0-0.1,0-0.1,0-0.2l0,0c0-0.5-0.4-0.9-0.9-1c-0.3,0-0.6,0.1-0.8,0.4l0,0
	c0,0.1-0.1,0.1-0.1,0.2c-0.4,0.8-1.3,1.3-2.2,1h-0.2l0,0c-0.5,0-0.9,0.4-1,0.9c0,0.3,0.1,0.6,0.4,0.8l0,0c0.1,0,0.1,0.1,0.2,0.1
	c0.8,0.4,1.3,1.3,1,2.2c0,0.1,0,0.1,0,0.2l0,0c0,0.5,0.4,0.9,0.9,1c0.3,0,0.6-0.1,0.8-0.4l0,0c0-0.1,0.1-0.1,0.1-0.2
	c0.4-0.8,1.3-1.3,2.2-1h0.2l0,0c0.5,0,0.9-0.4,1-0.9c0-0.3-0.1-0.6-0.4-0.8l0,0C423,35.3,422.9,35.3,422.8,35.3z"/>
<path class="st7" d="M13.3,299.3c-0.8-0.4-1.3-1.3-1-2.2c0-0.1,0-0.1,0-0.2l0,0c0-0.5-0.4-0.9-0.9-1c-0.3,0-0.6,0.1-0.8,0.4l0,0
	c0,0.1-0.1,0.1-0.1,0.2c-0.4,0.8-1.3,1.3-2.2,1H8.1l0,0c-0.5,0-0.9,0.4-1,0.9c0,0.3,0.1,0.6,0.4,0.8l0,0c0.1,0,0.1,0.1,0.2,0.1
	c0.8,0.4,1.3,1.3,1,2.2c0,0.1,0,0.1,0,0.2l0,0c0,0.5,0.4,0.9,0.9,1c0.3,0,0.6-0.1,0.8-0.4l0,0c0-0.1,0.1-0.1,0.1-0.2
	c0.4-0.8,1.3-1.3,2.2-1h0.2l0,0c0.5,0,0.9-0.4,1-0.9c0-0.3-0.1-0.6-0.4-0.8l0,0C13.4,299.3,13.3,299.3,13.3,299.3z"/>
<path class="st7" d="M26.6,485.8c-0.8-0.4-1.3-1.3-1-2.2c0-0.1,0-0.1,0-0.2l0,0c0-0.5-0.4-0.9-0.9-1c-0.3,0-0.6,0.1-0.8,0.4l0,0
	c0,0.1-0.1,0.1-0.1,0.2c-0.4,0.8-1.3,1.3-2.2,1h-0.2l0,0c-0.5,0-0.9,0.4-1,0.9c0,0.3,0.1,0.6,0.4,0.8l0,0c0.1,0,0.1,0.1,0.2,0.1
	c0.8,0.4,1.3,1.3,1,2.2c0,0.1,0,0.1,0,0.2l0,0c0,0.5,0.4,0.9,0.9,1c0.3,0,0.6-0.1,0.8-0.4l0,0c0-0.1,0.1-0.1,0.1-0.2
	c0.4-0.8,1.3-1.3,2.2-1h0.2l0,0c0.5,0,0.9-0.4,1-0.9c0-0.3-0.1-0.6-0.4-0.8l0,0C26.7,485.9,26.7,485.8,26.6,485.8z"/>
<circle class="st8" cx="248.7" cy="134.5" r="3"/>
<circle class="st7" cx="328.6" cy="520.9" r="3"/>
<circle class="st7" cx="510.7" cy="214.4" r="3"/>
<circle class="st9" cx="564" cy="347.6" r="3"/>
<circle class="st8" cx="365.7" cy="11.6" r="3"/>
<g class="st4">
	<line class="st3" x1="438.7" y1="613.8" x2="456.5" y2="645.9"/>
	<line class="st3" x1="460.9" y1="618.3" x2="438.7" y2="641.3"/>
</g>
<polygon class="st0" points="468.9,593.4 414.6,577 411.2,651.2 468.4,668.4 "/>
<polygon class="st0" points="86.9,477.9 86.9,553.4 411.2,651.2 414.6,577 "/>
<polygon class="st1" points="468.9,593.4 414.6,577 411.2,651.2 468.4,668.4 "/>
<g class="st4">
	<line class="st3" x1="428.9" y1="606.2" x2="446.6" y2="637.3"/>
	<line class="st3" x1="451" y1="610.6" x2="428.9" y2="632.9"/>
</g>
</svg>
