<?xml version="1.0" encoding="utf-8"?>
<!-- Generator: Adobe Illustrator 21.1.0, SVG Export Plug-In . SVG Version: 6.00 Build 0)  -->
<svg version="1.1" id="Layer_1" xmlns="http://www.w3.org/2000/svg" xmlns:xlink="http://www.w3.org/1999/xlink" x="0px" y="0px"
	 viewBox="0 0 900 780.7" style="enable-background:new 0 0 900 780.7;" xml:space="preserve">
<style type="text/css">
	.st0{fill:#02B76F;}
	.st1{opacity:0.7;}
	.st2{fill:#8271A8;}
	.st3{fill:#C62433;}
	.st4{fill:#FFB287;}
	.st5{fill:#E5785C;}
	.st6{fill:#406D11;}
	.st7{fill:#3E5910;}
	.st8{fill:#D33939;}
	.st9{fill:#F23D3D;}
	.st10{fill:#FFB287;stroke:#FFFFFF;stroke-width:6.5544;stroke-miterlimit:10;}
	.st11{fill:#4C9B0E;}
	.st12{fill:#445413;}
	.st13{fill:#FFFFFF;}
	.st14{fill:#D94647;}
	.st15{fill:#F7BFC2;}
	.st16{fill:#F2E7E1;}
	.st17{fill:#D2324B;}
	.st18{fill:#AF1E3A;}
	.st19{fill:#8E3925;}
	.st20{fill:#A34C31;}
	.st21{fill:#CDC8D6;}
	.st22{fill:#F58D6C;}
	.st23{fill:#422B27;}
	.st24{fill:none;stroke:#8E3925;stroke-width:5.462;stroke-linecap:round;stroke-miterlimit:10;}
	.st25{fill:none;stroke:#E5785C;stroke-width:4.3696;stroke-linecap:round;stroke-linejoin:round;stroke-miterlimit:10;}
	.st26{fill:#D36853;}
	.st27{opacity:0.6;fill:#E5785C;}
	.st28{fill:#C1BFE2;}
	.st29{fill:#4F4351;}
	.st30{fill:#D14D2A;}
	.st31{opacity:0.7;fill:#FFFFFF;}
	.st32{opacity:0.8;fill:#FFB287;}
	.st33{fill:#A8BDCC;}
	.st34{fill:#8A9099;}
	.st35{fill:#5C5866;}
	.st36{fill:#47454C;}
	.st37{fill:#8C9899;}
	.st38{opacity:0.2;fill:#7FB4DD;}
	.st39{fill:#B9BAC0;}
	.st40{fill:#6B7680;}
	.st41{fill:#6D7D84;}
	.st42{opacity:0.3;fill:#47454C;}
	.st43{fill:#646870;}
	.st44{opacity:0.8;fill:#47454C;}
	.st45{fill:#CAD8E5;}
	.st46{fill:#C17840;}
	.st47{fill:#8E2B30;}
	.st48{fill:#FF6464;}
	.st49{fill:#3BBCF4;}
</style>
<path class="st0" d="M736.8,695.3c55.1-63.2,88.5-145.9,88.5-236.3c0-198.7-161.1-359.8-359.8-359.8S105.8,260.2,105.8,458.9
	c0,90.5,33.4,173.1,88.5,236.3H736.8z"/>
<g>
	<g>
		<g class="st1">
			<path class="st2" d="M40.4,762.1c0-4.4,4.1-8,9-8h773.2c5,0,9,3.6,9,8c0,4.4-4,8-9,8H49.4C44.4,770.1,40.4,766.5,40.4,762.1z"/>
		</g>
	</g>
</g>
<g>
	<g>
		<path class="st3" d="M489.6,382.2c5.2,2.5,11.3,5.3,11.3,9.2c0,3.9-7,7.2-25.9,3.1S451.7,381,455,379.3c3.3-1.6,17.3-1.4,17.3-1.4
			L489.6,382.2z"/>
		<g>
			<path class="st4" d="M604.6,332.4c-1.8,6.5-7.8,10.7-14.2,10.7c-1.3,0-2.7-0.2-4.1-0.6c-0.1,0-7.1-2-17.1-5
				c-7.6-2.3-16.9-5.1-26.4-8.1c-47.3-15.1-53.4-20.2-56.3-22.7c-6.1-5.2-11.5-15.6-25.1-44.2c-4.4-9.3-9.5-19.9-14.6-29.9
				c-7.8-15.3-15.8-29.3-21.9-35.2c-5.9-5.6-6-15-0.4-20.9c5.6-5.9,15-6.1,20.8-0.4c13.9,13.4,29.2,45.4,42.7,73.7
				c6.1,12.8,14.4,30.1,17.7,34.5c8.4,5.3,52.1,19.5,88.8,29.9C602.3,316.4,606.8,324.6,604.6,332.4z"/>
		</g>
		<g>
			<path class="st4" d="M380.9,504.6c-1.7,3.5-3.4,6.7-5,9.6c-2.5,4.6-5,8.6-7.5,12.2c-3.8,5.3-8,9.5-13,12.9
				c-18.7,12.7-47.2,15-64,15.2l-1.6,0c-1.4,0-2.8,0-4.2,0c-19.3,0-29-1.4-39.2-2.8c-3.6-0.5-7.3-1-11.6-1.5
				c-9-1-15.5-9.1-14.5-18.1c1-9,9.1-15.5,18.1-14.5c4.8,0.5,8.7,1.1,12.5,1.6c10.5,1.5,18.7,2.7,38.4,2.5l1.6,0
				c11-0.1,22.4-2.3,25.1-4c0.6-0.4,1.3-1.1,2.1-2.1c3.8-4.8,9.4-15.8,13.3-23.5c4.1-8.1,8.6-5.2,16.6-1.1c2.4,1.2,6.6,2.2,11.2,3.2
				C370.4,496.5,383.8,498.9,380.9,504.6z"/>
			<path class="st5" d="M375.9,514.2c-2.5,4.6-5,8.6-7.5,12.2c-10.6,3.4-27,4.5-50.2-10.7c3.8-4.8,9.4-15.8,13.3-23.5
				c4.1-8.1,8.6-5.2,16.6-1.1c2.4,1.2,6.6,2.2,11.2,3.2L375.9,514.2z"/>
		</g>
		<path class="st6" d="M340.5,396.5c-5.4,1.8-5.9,15.5-4.1,21l13.9,42.1c1.8,5.4,7.3,7.5,12.2,4.6l73.7-17.3
			c9.7-3.2,44.8-40.5,36.3-66.2L457,369.1c-1.8-5.4-7.7-8.4-13.2-6.6L340.5,396.5z"/>
		<path class="st7" d="M318.3,492.1c0.1-1.2,0.4-2.2,0.9-3.2l10.6-17.4c11.9-25-7.8-47.3-7.4-75.4c0.3-17.8,47.7-36.5,64.9-40.9
			c17.3-4.4,27.5-29.2,31.9-11.9c10.7,42.5,23.6,73.4,7.2,111.8c-8.6,20.2-50.4,65.7-50.4,65.7c-4,7.1-19.9,5.7-35.6-3.1
			c0,0,0,0,0,0c-1.8-1-3.5-2.1-5.1-3.2c-8.7-5.9-14.8-13-16.5-18.8C318.4,494.5,318.2,493.3,318.3,492.1z"/>
		<path class="st8" d="M425.7,388c0,7.5-1.4,21.5-10.9,31.5c-9.5,10-31.1-15.8-31.1-15.8l7.9-15.8L425.7,388z"/>
		<path class="st6" d="M322.5,381.3v8c0,1.6,0,3.2,0,4.8c0,4.7,0.1-10,0.3-5.9c1,19.6,2,26.4,26.6,45.6c3.1,2.5,7.4,6.8,12,10.7
			c3.8,3.3,8.4,8,14.8,14l17.6-28.2c0,0,35.8-7.3,18.3-26c-2.9-3.2-5.8-6-8.6-8.5c-3.4-3.1-6.8-5.6-10.1-7.8v0
			c-10.1-6.5-19.5-8.7-28.8-6.7c-5,1.1-11.3,1.4-17.6,1.4C334.4,382.7,322.5,381.3,322.5,381.3z"/>
		<g>
			<g>
				<g>
					<path class="st9" d="M459.3,206.8l-9,172c0,0-35,6.3-68.3,9.4c-4.7,0.4-9.3,0.8-13.8,1.1c-24.6,1.5-45.3,0.4-45.7-7.7
						c0-0.1,0-0.2,0-0.3c0-19.4,4.3-23.5,8.4-36.5c0.1-0.2,0.1-0.4,0.2-0.6c2.4-7.9,4.7-19,5.8-38.6V204.7c0-23,3.9-34.8,18.7-39.2
						c0.7-0.2,1.5-0.4,2.2-0.6c4.4-1,9.6-1.5,15.8-1.5l46.9,4.7C439,168.3,459.3,181.4,459.3,206.8z"/>
					<g>
						<path class="st10" d="M378.9,163.4H390h10.1h11.7c2.2,0.1,29.5,6.9,31.9,31.7c1.3,13.9,2.7,22.6-19,22.6h-2.7
							c-18.2,0-20.7-13.8-24.1-27c-4.9-19.2-8-22.8-13-25.5C380.4,162.9,378.9,163.4,378.9,163.4z"/>
						<path class="st4" d="M376.1,163.4h-0.4C375.7,163.4,375.9,163.4,376.1,163.4z"/>
					</g>
				</g>
			</g>
		</g>
		<g>
			<path class="st6" d="M458.1,476.3c-7.8,11.5-19.9,22.1-24.3,22.3c-8.5,0.5-9,6-15.8-0.3c-1.1-1-10.4-10.5-11.5-11.5
				c-16.9-15.7-29.3-27.2-36.7-34.2c-3.3-3.1-5.4-5.1-6.7-6.4c-0.9-0.8-1.4-1.4-1.8-1.8c-12.5-12.6-13-31.9-1.2-44.8
				c10.3-11.3,30.1-15.7,46.2-1.6c0.7,0.6,1.3,1.2,1.3,1.2c1.2,1,2.2,2.1,3.2,3.3c2.3,2.2,6.1,5.8,12.2,11.5
				c6.3,5.9,15.1,14.1,27.4,25.5c1.2,1.1,10.6,10.9,11.6,12.1C467,457.9,464.4,467,458.1,476.3z"/>
			<path class="st11" d="M458.1,476.3l-15.1,1.8l-8.4-12.7c-10.1-8.4-41.9-37.6-47.4-43.6c-2.2-2.4-1.1-7.8,2.2-12.1l0,0
				c4.9-6.4,14.5-10.8,25.3-1.6c2.3,1.9,12.5-1,15.6,1.1c1.3,1.2,3.3,3.6,5.6,6.6c9.5,12.1,25.1,34.9,25.9,35.9
				C467.1,457.4,464.4,467,458.1,476.3z"/>
			<path class="st6" d="M439.9,420.8c-3.8-5-10.7-4.3-24.8-7.4c-19.1-4.3-22.5-6.9-25.6-3.8c5.1-8.5,14.5-10.8,25.3-1.6
				c2.3,1.9,12.5-1,15.6,1.1C431.7,410.4,439,415.2,439.9,420.8z"/>
		</g>
		<path class="st12" d="M465.6,458.7c0.2,6-3.3,14.5-9.7,22.8c-1.2,1.6-2.5,3.1-3.9,4.6l0,0c-3,3.3-6.2,6.2-9.4,8.6
			c-0.9,0.7-1.8,1.3-2.7,1.9c-8.4,5.5-16.3,7.1-20.4,3.5c-3.7-3.4-3.2-10.5,0.7-18.6c0.7-1.5,1.6-3.1,2.5-4.7
			c2-3.4,4.6-6.8,7.6-10.1c0.1-0.1,0.1-0.2,0.2-0.3c1.5-1.6,2.9-3.1,4.5-4.4c1-0.9,2.2-1,3.2-1.8c0,0,0.8,0.7,0.4-0.3
			c6.6-5.4,13-7.9,17.8-9.4c0.1,0,0.3,0,0.4,0c1.2-0.1,2.4,0.1,3.4,0.5c0.4,0.2,0.9,1,1.7,1.8c0.8,0.7,2.5,1.7,2.9,2.8
			C465.2,456.6,465.5,457.4,465.6,458.7z"/>
		<path class="st4" d="M503.7,600.2c-1.3,0.3-6.7,2.3-8,2.3c-7.1,0-5.3,12.2-8.1,5.2c-6-15.2-11.9-49.9-17.2-75.4
			c-3-14.3-19.3-27.7-30.7-35.7c-0.7-0.5-1.6-1.1-2.4-1.7c-6.1-4.4-14.8-11.1-17.3-13.4c0.7-1.5,1.6-3.1,2.5-4.7
			c2-3.4,4.6-6.8,7.6-10.1c0.1-0.1,0.1-0.2,0.2-0.3c1.5-1.6,2.9-3.1,4.5-4.4c1-0.9,17.7-11,21.4-11.4c0,0,0.1,0,0.1,0
			c0.1,0,0.2,0,0.3,0c1.2-0.1,2.4,0.1,3.4,0.4c1.6,1.5,3.2,2.9,4.7,4.3c27.8,25.2,31.6,30.7,35.2,40.4c1.7,4.6,1,5.2,6.4,32.7
			c4.7,23.9,6.8,44.8,8.8,52.8C517.4,589.5,512.3,598.1,503.7,600.2z"/>
		<path class="st5" d="M460.4,451.1c-11,10.8-18.8,27.3-23,43.8c-6.1-4.4-14.8-11.1-17.3-13.4c0.7-1.5,1.6-3.1,2.5-4.7
			c2-3.4,4.6-6.8,7.6-10.1c0.1-0.1,0.1-0.2,0.2-0.3c1.5-1.6,2.9-3.2,4.5-4.4c10-7.9,17.7-11,21.4-11.4c0,0,0.1,0,0.1,0
			C458.1,450.4,460,450.5,460.4,451.1z"/>
		<g>
			<path class="st13" d="M479.6,577.2c0,0,5.4,22.2,8,37.4c1.3,7.4,9,14.8,16.1,15.6c1.2,0.1,2.4,0.1,3.7,0
				c8.5-1.1,17.3-7.4,15.8-16c-2.9-16.2-6.7-31.9-10.4-47.9L479.6,577.2z"/>
		</g>
		<path class="st14" d="M484.6,624.1c0.1,0.4,0.1,0.7,0.1,0.9c0.9,6.3,2.4,13.1,4.1,18.9c0.6,2.1,1.3,4.2,1.9,6
			c2.1,5.7,4.3,9.4,6.1,8.9c2,2.4,96.5-33.7,100.6-35.2c4.1-1.5,6.2-6.4,3.9-13.4c-0.2-0.5-0.4-1-0.6-1.5c-0.7-1.7-1.7-3-2.8-4.1
			c-4.9-4.5-12.7-2.5-18.8-0.8c-1.4,0.4-2.8,0.8-4,1.1c-3.1,0.8-5.9,1.1-8.4,1.1c-1.7,0-3.3-0.2-4.8-0.5l0,0
			c-1.9-0.4-3.7-0.9-5.6-1.5c-2.5-0.8-5.1-1.8-7.9-2.8c-1-0.4-2-0.7-3.1-1.1c-0.4-0.1-0.7-0.2-1.1-0.4c-1.5-0.5-2.9-1.1-4.1-1.6
			c-2-0.9-3.7-1.9-5.2-2.8l0,0c-0.4-0.2-0.7-0.5-1-0.7c-1-0.7-2-1.5-2.9-2.2c-4.1-3.4-6.7-6.4-12-7c-6.3-0.7-16.3,3-17.6,9.4
			c-0.1,0.4-0.1,0.8-0.1,1.3c0,2.4,1.6,7.2,2.1,11.6c0.4,3.2,0.2,6.2-1.7,7.9c-6.4,5.5-10.2,1.6-12.4-3.3c0,0,0,0,0,0
			c-1.9-4.2-2.5-9.1-2.5-9.1C483.4,604.5,483.2,613.7,484.6,624.1z"/>
		<path class="st15" d="M490.7,649.9c2.1,5.7,4.3,9.4,6.1,8.9c2,2.4,96.5-33.7,100.6-35.2c4.1-1.5,6.2-6.4,3.9-13.4
			c-0.2-0.5-0.4-1-0.6-1.5C578.5,616.5,490.7,649.9,490.7,649.9z"/>
		<path class="st13" d="M520.9,602.4c4.1-0.9,8.4-2.3,12.6-3.6c-4.2,2.7-7.5,6-6.1,8.9c1.6,3.2,6.1,0.4,7.9-0.6
			c2.4-1.2,5.5-2.3,8.5-3.6c-1.2,2.9-1.8,6.1-2,9.4c-0.1,1.3,1.4,2,2.4,1.3c5.7-4.7,10.7-7.1,17.7-8.6c-1.9-0.4-3.7-0.9-5.6-1.5
			c-4.1,1.3-7.7,3.2-11.3,5.8c0.5-3.2,1.5-6.1,3.4-8.6c-1-0.4-2-0.7-3.1-1.1c-0.4-0.1-0.7-0.2-1.1-0.4c-2.5,1.1-5.3,2-7,2.9
			c-1.5,0.8-6.2,2.7-6.5,3c2.5-2.9,5.8-5.7,9.5-7.6c-2-0.9-3.7-1.9-5.2-2.8l0,0c-3.6,1-7.3,2.2-10.9,3.2c2.5-2.2,6.2-3.2,9.8-3.9
			l-2.9-2.2c-5,1.2-9.7,3.2-11.8,8C518.8,601.5,519.9,602.7,520.9,602.4z"/>
		<g>
			<g>
				<path class="st14" d="M242,511.9c-0.3-0.1-0.6-0.1-0.9-0.1c-6-1-12.7-1.5-18.4-1.6c-2.1,0-4.2,0-6,0.1c-5.8,0.3-9.8,1.3-9.9,3.1
					c-2.7,1.2,3.9,94.2,4.1,98.3c0.2,4.1,4.1,7.5,11.2,7.4c0.5,0,1,0,1.5-0.1c1.8-0.2,3.3-0.7,4.5-1.4c5.5-3.2,5.9-10.9,6-16.9
					c0-1.4,0-2.8,0.1-3.9c0.1-3.1,0.6-5.7,1.4-8c0.5-1.5,1.1-2.9,1.8-4.3l0,0c0.9-1.6,1.8-3.2,2.9-4.7c1.4-2.1,3.1-4.1,4.8-6.4
					c0.6-0.8,1.2-1.7,1.8-2.5c0.2-0.3,0.4-0.6,0.6-0.9c0.9-1.2,1.8-2.3,2.6-3.3c1.4-1.6,2.8-2.9,4.1-3.9l0,0c0.3-0.3,0.6-0.5,1-0.8
					c1-0.7,1.9-1.4,2.8-2c4.3-2.8,7.6-0.8,9.6-5.5c2.4-5.5,1.8-15.7-3.7-18.7c-0.4-0.2-0.7-0.4-1.1-0.5c-2.2-0.7,4.1,0.8,0,0
					c-3.1-0.5,0.6-7.4,1.6-5.2c9.3,21.3-7-0.4-7-0.4c4.4-0.5-4.7-9.7-4.7-9.7C252.5,516.2,251,513.9,242,511.9z"/>
				<path class="st13" d="M276.7,521.9c0,0-5.2,3.5-5.2,15.1c0,11.6,5.2,17.8,5.2,17.8c-4.2,0-6.9-0.4-9-0.5
					c-3.6-0.3-5.1-0.4-7.2-0.5c-2.3-0.1-8.2-0.4-14.6-3.1c-9.5-3.9-5-32.4,2.2-32c4.3,0.3,4.6,0.4,10,1.5
					C260.4,520.6,276.7,521.9,276.7,521.9z"/>
				<path class="st15" d="M216.8,510.2c-5.8,0.3-9.8,1.3-9.9,3.1c-2.7,1.2,3.9,94.2,4.1,98.3c0.2,4.1,4.1,7.5,11.2,7.4
					c0.5,0,1,0,1.5-0.1C222.8,596.4,216.8,510.2,216.8,510.2z"/>
			</g>
		</g>
		<g>
			<g>
				<path class="st4" d="M428.1,174.9c0,0-6.2,4.5-20.3,4.5c-3.5,0-9.2-1.7-9.2-1.7s-3.8-10.3-8.6-12.5c-3.5-1.6-3.1-1.9-3.1-1.9
					l12.9-30.9l37.1-2L428.1,174.9z"/>
				<path class="st5" d="M430.1,161.5c-0.5,2.2-10.6-2.1-18.2-1.5c-7.6,0.6-16.1,1.6-20.3,5.1c-0.6,0.5-2.8-5.4-3.3-3.5
					c-1.4,6.3,6.6-39.5,6.6-39.5l43.6,1.4L430.1,161.5z"/>
				<path class="st5" d="M402.5,154.9c0.7,3.6,0.6,5.5,11.3,5c18-0.9,39.5-2.6,46-24.4c5.8-19.4-39.1-10.1-39.1-10.1
					s-11.6,6.4-14.3,11.7C403.7,142.4,402.5,154.9,402.5,154.9z"/>
			</g>
		</g>
		<path class="st14" d="M248.1,515.7c4.1,1.4,4,1.2,4.6,3.4c0.7,2.5-3.5,3.7-17.5,2.2s-15.1-5.4-15.1-5.4L248.1,515.7z"/>
		<path class="st13" d="M263.9,541.5c2.2,4.5,12.7,10-1.9,10.5c-14.6,0.5-24.5-1.5-24.8-11.6c-0.3-10.1,1.2-19.1,9.5-18.5
			C255,522.6,263.9,541.5,263.9,541.5z"/>
		<path class="st8" d="M322.4,376.5v17.6h0l65.9-6.2c-14.2,0-25.9-1.7-41.6-5.3C339.7,381,331.8,379,322.4,376.5z"/>
		<path class="st12" d="M393.2,388L393.2,388c-9.8,0-29.2,2.4-45.2,6.5c-2.1,0.5-4.1,1.1-6.1,1.7c-10,3-16.7,9.2-18.2,13.5
			c-3.5-21.9-1.2-33.2-1.2-33.2c6.7,1.8,12.7,3.4,18.2,4.7c2.1,0.5,4.2,1,6.2,1.5c0.1,0,0.1,0,0.2,0C363.1,385.9,379,388,393.2,388z
			"/>
		<g>
			<path class="st13" d="M425.8,472c-1.3,1.8-2.5,3.6-3.6,5.4c-14.8-13.8-41.3-37.1-52.8-47.3l-2-1.7c-1.6-1.4-3.2-2.8-5-4.2
				c-8.3-6.8-17.5-14.3-20.7-28c-0.8-3.3-1.2-6.9-1.2-10.9v-4.1c2.1,0.5,4.2,1,6.2,1.5c0.1,0,0.1,0,0.2,0v2.6c0,3.4,0.3,6.4,1,9.2
				c2.7,11.7,10.5,18.1,18.6,24.8c1.7,1.4,3.5,2.9,5.1,4.3l2,1.7C386,436.2,410.9,458.2,425.8,472z"/>
		</g>
		<path class="st16" d="M347,385.3v-2.6c-0.1,0-0.1,0-0.2,0c-2-0.5-4-1-6.2-1.5v4.1c0,4,0.4,7.6,1.2,10.9c2-0.6,4-1.2,6.1-1.7
			C347.3,391.7,347,388.7,347,385.3z"/>
		<g>
			<path class="st17" d="M467.2,54.8c0,3.2,0,4.7,0,7.9c0,5.4,0,10.8,0,10.8c0,3.1-0.4,5-4.2,5c-3.1,0-2.2-13.1-6.3-13.1
				c-10.9,0-21.7,0-32.6,0c-14.7,0.1-51-0.5-55.3,17.9c-0.2-2.4-0.2-3.6-0.4-6c-0.2-3-0.3-4.5-0.5-7.4c-0.1-1.5-0.1-2.2-0.2-3.6
				c-0.1-1.1-0.1-1.7-0.2-2.8c3.5-18.4,42.6-17.4,56.6-17.4c10.9,0,21.7,0,32.6,0c2.2,0,4.1,0.2,5.8,0.7
				C465.3,47.8,467.2,50,467.2,54.8z"/>
			<path class="st18" d="M464.7,73.3c-0.1,2-0.2,3-0.3,5.1c-0.4,5.9-0.7,8.9-0.7,14.8c-4.9-18.4-40.5-17.8-55.5-17.9
				c-10.9,0-21.7,0-32.6,0c-4.2,0-3.2,13.1-6.3,13.1c-3.7,0-4.2-1.8-4.2-5c0,0,0-3.1,0-7c0-4.7,0-7.1,0-11.8c0-2,0.3-3.5,0.8-4.7
				c1.1-2.4,3.2-3.4,5.9-3.8c1.2-0.2,2.4-0.2,3.8-0.2c10.9,0,21.7,0,32.6,0c2.2,0,4.7,0.1,7.6,0.2c7.6,0.3,17.1,1.2,25.7,2.9
				c6.8,1.3,13,3.2,17.3,5.7C462.6,67,464.9,69.8,464.7,73.3z"/>
			<path class="st19" d="M367.4,91.3c0.5,11.7,2.7,33.7,18.8,33.6c8.4,0,15.5-11.7,15.2-14.4c-0.3-2.7-3.3-18.8-5.8-19.8
				C393.1,89.8,367.4,91.3,367.4,91.3z"/>
			<path class="st19" d="M391.6,119.2c-1.7-3.4-2.8,7.3-2.7,6.1c0.6-16.7-21.1-13-21.2-30.7c-0.2-20.2-1.4-21.6-2.1-31.8
				c-2.2-33.1,30.7-39,56.6-39.2c15-0.1,28.6,4.6,34.2,19.3c6.3,16.5,5.9,35.5,2.2,52.9C436.2,103.6,413.9,111.5,391.6,119.2z"/>
			<path class="st5" d="M464.3,109.5c0,11.9-0.7,29.6-11.8,36.3c-3.2,1.9-5,6.1-11.5,7.6c-7,1.6-9.9,3.3-10.7,7.2
				c-0.7,3.2-5.9-5.7-7.9-6.4c-13.1-4.6-22.7-3.7-32.2-15.8c-7-9-10.3-22-10.5-33.2c3.5-10.8,5.2-16.2,8.7-27.1
				c-0.2-21.1,15.2-38.9,36.8-38.7c21.1,0.2,39.5,15.7,39.4,37.6C463.6,87.9,463.8,98.7,464.3,109.5z"/>
			<path class="st4" d="M465.1,76.3c-0.1,3.6-0.2,5.4-0.3,9c-0.3,9.7-0.6,14.2,1,24.3c9.5,39.8-16.3,59.3-45.7,55.1
				c-28.4-4-26.8-37.6-26.6-67.3c0.5-7.8,0.8-11.8,1.4-19.6c0-0.8,0-1.7,0-2.4c-0.1-21.6,10.4-40.1,33.6-40.2
				C452.8,35.2,466.3,53,465.1,76.3z"/>
			<path class="st5" d="M393.9,95.4c0.6,8.4-3.7,15.6-9.6,16.1c-5.9,0.5-11.1-5.9-11.7-14.3c-0.6-8.4,2.7-15,8.5-16
				C387,80.1,393.3,86.9,393.9,95.4z"/>
			<path class="st20" d="M459.8,48.5c0,0.1,0.1,0.1,0.1,0.2C459.8,48.7,459.8,48.6,459.8,48.5c-2.5,5.9-8.1,9.6-12.8,9.7
				c-13.4,0.2-22.2-11.9-35.1-10.8c-3.6,0.3-8.3,1.8-11.5,6.3c-2,2.9-3.4,7-3.5,12.7c0,10.9,0,30.3-2.7,32.8
				c-1.3,1.2-4.8-2.8-4.8-2.8c0-8.5-1.3-13.3-6.7-15.8c1-2.4,1.5-3.5,2.4-5.9c0-7.9,2.3-15.6,6.4-22.2c2.2-3.5,5-6.8,8.3-9.5
				c-4.3-5.4-5.8-13.6-4.9-14.1c12.2-6.9,32.2-5.5,48.1-3.2c8.9,1.3,17.5,8,17.8,16.9C460.8,44.5,460.5,46.5,459.8,48.5z"/>
			<path class="st5" d="M465.2,56.8c0,5.6,0,19.3,0,19.3c0-7.6-4.5-8.7-10.5-8.7c-10.9,0-21.7,0-32.6,0c-6.2,0-15.9,0.7-25.2,2
				c-9.4,1.3-28.3,3.7-30.1,15.9c-0.5-7.9-0.8-11.9-1.3-19.8c2.1-12.7,22.4-14.6,32.2-15.8c9.2-1.1,18.5-1.7,24.4-1.7
				c10.9,0,21.7,0,32.6,0C460.7,48.1,465.2,49.2,465.2,56.8z"/>
			<path class="st20" d="M461.5,49.2c10.9-10.7,6.3-21.9,0-33.4c0,0-18.7,19.2-22.2,19.3c-3.5,0.2,5.9,14,5.9,14
				C451.7,49.2,455,49.2,461.5,49.2z"/>
			<path class="st20" d="M454.6,49.7c7-12,5.1-27.9-6.5-36.5c-10.2,11.7-36.9,10.7-42,11.5c-5,0.7,21.8,19.4,32.6,28.6
				C445,51.9,448.2,51.2,454.6,49.7z"/>
			<path class="st19" d="M459.8,48.5c0,0.1,0.1,0.1,0.1,0.2C459.8,48.7,459.8,48.6,459.8,48.5c-2.5,5.9-8.1,9.6-12.8,9.7
				c-13.4,0.2-22.2-11.9-35.1-10.8c-3.6,0.3-8.3,1.8-11.5,6.3c-3.5,0.1-6.4,0-7.6-0.4c-0.4-0.1-0.8-0.4-1.2-0.7
				c-1.6-1.2-3.3-3.3-3.3-3.3s1.3-6.4,2.3-7.1c1-0.7,5.9-4.8,5.9-4.8c1.2,3.1,2.8,4.5,7.5,4.6c4.7,0.1,27,0,41,0
				c3.4,0,6.5-0.1,9.1,0C459.9,42.3,460.5,46.5,459.8,48.5z"/>
			<path class="st17" d="M465.2,53.8c0,5.6,0,19.3,0,19.3c0-7.6-4.5-8.7-10.5-8.7c-10.9,0-21.7,0-32.6,0c-6.2,0-15.9,0.7-25.2,2
				c-9.4,1.3-28.3,3.7-30.1,15.9c-0.5-7.9-0.8-11.9-1.3-19.8c2.1-12.7,22.4-14.6,32.2-15.8c9.2-1.1,18.5-1.7,24.4-1.7
				c10.9,0,21.7,0,32.6,0C460.7,45.1,465.2,46.2,465.2,53.8z"/>
			<path class="st19" d="M367.4,88.1c0.2,6.6-5.9,20-10.8,18.4c0,0,9.9,8.5,16,5.1c-1.4-7-2.1-10.5-3.6-17.4
				C368.4,91.7,368,90.5,367.4,88.1z"/>
			<path class="st18" d="M396.9,66.4c-9.5,1.2-28.3,3.7-30.1,15.9c-0.5-7.9-0.8-11.9-1.3-19.8c2.1-12.7,22.3-14.7,32.2-15.8
				c-0.5,1.2-0.6,3-1,5.7C396,57,397,58,396.9,66.4z"/>
			<g>
				<g>
					<path class="st13" d="M467.2,57.9c0,1.9,0,2.9,0,4.8c-0.4-1.2-1.1-2-2-2.5c-1.5-0.9-3.7-1.2-6.5-1.2c-13.2,0-26.3,0-39.5,0
						c-2.6,0-11.6,0.1-22.4,1.6c-0.1-1.2-0.2-2.1-0.2-3c8-1.1,14.9-1.5,19.1-1.6c1.6,0,2.8,0,3.5,0c13.2,0,26.3,0,39.5,0
						c2.3,0,4.6,0.2,6.5,0.9C465.9,57.1,466.6,57.5,467.2,57.9z"/>
					<path class="st21" d="M396.8,60.6c-0.9,0.1-1.7,0.2-2.6,0.4c-13,2-22.1,5.1-26.3,9c-0.8,0.7-1.3,1.4-1.8,2.2
						c-0.6,1-1.1,3.1-1.1,4.3c0-2.7,0-4.1,0-6.8c0-0.7,0.5-1.5,0.9-1.8c0.6-0.5,1.2-1,1.8-1.5c6.1-4.3,16.7-6.8,26-8.3
						c1-0.1,1.9-0.3,2.8-0.4C396.6,58.5,396.7,59.4,396.8,60.6z"/>
				</g>
			</g>
		</g>
		<path class="st9" d="M487.7,377.3c-2,3.6-4,6.7-5.9,9.5c-11.9,17.3-19.5,11.8-29.1,13.4c-14.1,2.4-25.5,3.1-36.3,2.4
			c-20.3-1.4-38.8-8-70.3-18.7c-0.6-0.2-1.1-0.4-1.7-0.6c-0.3-0.1-0.6-0.2-1-0.3c-5-1.7-10.4-3.3-16.2-5c-4.7-1.3,44.4-75,51.8-81.5
			c7.4-6.6,27.8-23.1,33.6-27.2c5.9-4.1,20.7-13.2,23.6-18.1c2.9-4.9,22-54.5,22-54.5c0.5,2.6,0.9,5,1.2,7.4
			c2.1,15.2,5.9,28.9,10.4,41.6c8.3,23.6,18.9,43.6,24.6,63.3C500.4,330,500.3,355.2,487.7,377.3z"/>
		<path class="st4" d="M481.8,386.9C481.7,386.9,481.7,386.9,481.8,386.9c-1.9,2.7-3.7,5.1-5.5,7.1c-9.6,11.2-18.2,14-26.2,15.4
			c-13.4,2.3-23.9,2.1-33.9,0.2c0,0,0,0,0,0c-15.6-2.9-29.5-10-49.9-18.1c0,0,0,0,0,0c-5.9-2.4-12.4-4.8-19.6-7.3
			c-0.2-0.1-0.4-0.1-0.7-0.2c0.2,0.1,0.4,0.1,0.7,0.2c29.9,9.2,72.3,7.8,106.2,5.3c10-0.8,19.3-1.6,27.3-2.4
			C480.7,387,481.2,386.9,481.8,386.9z"/>
		<path class="st9" d="M500.9,391.4c-2.6-4.2-11.5-5.8-42.5-3.2c-31,2.7-7.4-14.8-4.5-20.4c2.9-5.7,26.8-98.9,37.7-67.4
			c8.5,24.6,9,29.2,10.2,55.6C502.7,373.9,500.9,391.4,500.9,391.4z"/>
		<path class="st22" d="M430.8,86.8c-1.6,2.7-2.9,7.9-9.1,7.7c-6.2-0.2-7.5-5.8-5.9-8.7C417.3,82.9,430.8,86.8,430.8,86.8z"/>
		<path class="st22" d="M463.3,86.8c-1.6,2.7-2.9,7.9-9.1,7.7c-6.2-0.2-7.5-5.8-5.9-8.7C449.9,82.9,463.3,86.8,463.3,86.8z"/>
		<path class="st5" d="M387.2,133.9c3.9,11.2-5.4,26.7-17.6,27.6l22.2,1.8l2.2-14c0,0-1.4-12.9-3.5-15.4
			C388.4,131.4,387.2,133.9,387.2,133.9z"/>
		<g>
			<path class="st5" d="M441.7,115.2c3.8,0.1,6.9-2.1,6.7-4.3c-0.1-0.8-0.8-1.7-2.3-1c-0.7,0.3-2.5,0.7-4.4,0.7
				c-1.9,0-3-0.4-4.1-0.7c-2.4-0.7-3.1,0.2-3.2,1C434.2,113,437.9,115.1,441.7,115.2z"/>
		</g>
		<path class="st23" d="M420.5,94.4c0,1.8,1.5,3.3,3.3,3.3c1.8,0,3.3-1.5,3.3-3.3c0-1.8-1.5-3.3-3.3-3.3
			C422,91.1,420.5,92.6,420.5,94.4z"/>
		<path class="st23" d="M449.9,94.9c0,1.8,1.5,3.3,3.4,3.3c1.9,0,3.4-1.5,3.4-3.3c-0.1-1.8-1.6-3.3-3.5-3.3
			C451.4,91.6,449.9,93.1,449.9,94.9z"/>
		<path class="st24" d="M415.7,84.6c6.1-0.1,8.9-0.2,15-0.3"/>
		<path class="st24" d="M449.4,84.9c5.2,0.4,7.8,0.6,12.9,0.9"/>
		<path class="st25" d="M432,131.3c1.1-0.7,4.7-2.2,8.3-2.2c3.6,0,5.4,1.3,6.2,2.2l-6.2,1.5"/>
		<path class="st4" d="M402.5,177.4c2.8,4.6,25.7,2.1,25.7,2.1c-0.1-5,2.6-8.6,6.2-11.4c0.4-0.3,0.8-0.6,1.2-0.9
			c3.4-2.3,7.5-4.1,11-5.9c0.1,0,0.1-0.1,0.2-0.1c0.9-0.5,1.8-0.9,2.6-1.4c2.1-1.2,2.9-1.8,3.1-2.3c0.4-1.2-4.3-1-3.8-6.1
			c0,0-17.9,5.2-29.8,8.7c-1.7,0.5-3.3,1-4.6,1.4c-2.6,0.8-4.6,1.4-5.3,1.7c-0.8,0.3-1.6,0.9-2.4,1.6c-0.5,0.4-0.9,0.9-1.4,1.4
			C402.6,169.5,400.6,174.2,402.5,177.4z"/>
		<path class="st5" d="M392.1,164.7c2.5-1.8,5.8-3.4,13.8,0c0.3,0.1,0.5,0.2,0.8,0.3c7.1,2.9,17.7,4.7,27.8,3.1
			c0.4-0.3,0.8-0.6,1.2-0.9c3.4-2.3,7.5-4.1,11-5.9c0.1,0,0.1-0.1,0.2-0.1c0.9-0.5,1.8-0.9,2.6-1.4c2.1-1.2,2.9-1.8,3.1-2.3
			c-7.3,4-21.2,6.5-33.6,2.6c-0.5-0.2-1.1-0.3-1.6-0.5c-19.7-7.2-23.3-28.1-24-40.3c0,0,2,37,1.8,39.1c-0.1,1.1-3.8,3.5-4.9,5.3
			c-0.5,0.8,0.9,1.9,0.9,1.9S390.4,166,392.1,164.7z"/>
		<path class="st22" d="M438.1,137.9c2.6-0.1,4-0.4,5.9-0.9c1.9-0.5,2.9,1.1,1.2,2.3c-2,1.4-4.3,2.2-7.3,2c-1.6-0.1-3-0.5-4.2-1.2
			c-1.8-1-1.7-3.2,0-2.8C434.7,137.6,436.7,138,438.1,137.9z"/>
		<path class="st4" d="M492.2,387.5c0,0.2-0.1,0.3-0.1,0.5c-0.9,4.4-2.8,8.3-5.5,11.6c-10.7,13.2-35.2,17.9-70.4,10c0,0,0,0,0,0
			c-14.1-3.2-5.3-6.9-6.8-12.1l31.9-3.9l4.4-0.5l7.1-3.7l0.2-0.1c11-0.9,20.1-1.9,27.1-2.3c0.5,0,1.1-0.1,1.6-0.1
			C486.2,386.7,489.7,386.8,492.2,387.5z"/>
		<path class="st26" d="M492.2,387.5c0,0.2-0.1,0.3-0.1,0.5c-0.9,4.4-2.8,8.3-5.5,11.6c1.7-3-0.3-5.4-4.9-6.5
			c-7.4-1.8-22.9-1.1-34,0c-2,0.2-4.2,0.4-6.4,0.5c-25.2,1.8-61,1.1-75-2.2c0,0,0,0,0,0c-5.9-2.4-12.4-4.8-19.6-7.3l0,0
			c29.9,9.2,72.3,7.8,106.2,5.3l0.2-0.1c11-0.9,20.1-1.9,27.1-2.3c0.5,0,1.1-0.1,1.6-0.1c0,0,0,0,0,0.1
			C486.2,386.7,489.7,386.8,492.2,387.5z"/>
		<path class="st3" d="M380,389.9c-3.6-0.3-7.2-0.5-10.7-0.8c-17.8-1.4-33.1-3.1-45.7-7.7c-3.8-1.4-7.3-3-10.6-5
			c0,0,13.8-18.3,18.9-31.7c0,0,0-0.1,0-0.1c0.1-0.1,0.1-0.3,0.1-0.5c2.4-7.9,4.7-19,5.8-38.6v-69.6c10.3-11.7,22.3-18,24.8-17.2
			c8.6,2.5-0.5,110.6-1.5,119.3C356.5,381,387.3,390.4,380,389.9z"/>
		<g>
			<path class="st4" d="M340.1,207.8c0,0,0,9.4,0,20.1c0,15,6.1,23.4,20.8,23.4c30.1,0,24.8-42.5,19.9-62.1
				c-4.9-19.4-17.6-25.7-22.7-24.2c-10.7,2.5-16.3,8.2-18.9,18.4C337.7,189,340.1,199.1,340.1,207.8z"/>
			<path class="st13" d="M360.9,254.5c-19.9,0-24.1-14.5-24.1-26.7v-20.1c0-3.3-0.4-6.8-0.7-10.3c-0.6-5.7-1.1-11-0.1-15
				c3-11.4,10.3-15.1,21.4-18.6c0.7-0.2,4.9-1.3,5.7-1.3c4.2,0,5.7,1.3,9.9,5.4c3.5,3.4,8.3,9.8,10.9,20.4
				c2.4,9.4,9.1,41.3-3.4,57.2C376,251.5,369.4,254.5,360.9,254.5z M359.7,168c-0.4,0-0.6,0-0.7,0.1l-0.2,0
				c-9.3,2.2-14.1,6.8-16.5,16c-0.8,2.9-0.3,7.7,0.3,12.7c0.4,3.6,0.8,7.3,0.8,10.9v20.1c0,13.9,5.4,20.1,17.6,20.1
				c6.4,0,11.2-2.1,14.5-6.4c5.5-7.1,9-24.4,2.2-51.6c-2.3-9.1-6.2-14.4-9.2-17.3C364.9,169.2,361.5,168,359.7,168z"/>
		</g>
		<path class="st27" d="M337.1,204.7v11.2c0,0.5,0,43.2,0,43.7c30.6,0,26.9-86.8,26.9-86.8l-6.4-0.1
			C342.8,177.1,337.1,181.7,337.1,204.7z"/>
		<g>
			<path class="st4" d="M253.2,339.6c7.4,0,14-5.1,15.7-12.6c8.5-38.8,20.6-76,27.3-85.2c16.3-10.6,35.4-12.1,68.5-39.6
				c6.8-5.7,10.2-20.8,5-28c-5.5-7.7-16.2-9.7-24.1-5.6c-11.9,6.2-53.1,30.8-69.8,42.5c-13.4,9.5-14.8,29.9-22.5,58
				c-6.9,25-12.1,48.5-12.3,49.5c-1.9,8.7,0.1,18.7,8.8,20.6C250.9,339.5,252,339.6,253.2,339.6z"/>
		</g>
		<g>
			<path class="st4" d="M246,322.5c-6-0.5-12.2,3.8-13.7,9.6l-2.2,8.4c-1.6,5.8,1.6,12.7,7,15.3l14.7,7.2c5.4,2.6,10.9,0,12.3-5.9
				l5-21.9c1.3-5.9-2.5-11.1-8.5-11.6L246,322.5z"/>
		</g>
		<path class="st4" d="M280.3,346.8c-0.7-2.2-1.2-6.8-2.3-10.9c-0.3-1.2-0.5-2.3-0.9-3.4c-1.3-5.8-5.1-11.4-11-13.9
			c-1.3-0.6-7.3,1.9-5.9,2.1c1.4,0.2,0.2,1.8-0.5,3.3c-1.2-1.3,2.1-1.4,1.6-3.2c-1-3.2-5.1-2.6-6.2-0.3c0,0-0.1-0.1-0.1-0.1
			c-0.3-0.4-0.7-0.5-1.1-0.4c0-0.1-0.1-0.2-0.1-0.3c-0.4-1.4-2.5-0.7-2.1,0.7c1.4,4.8,4.9,8.5,9,11.4c0.1,0.1,0.2,0.2,0.3,0.3
			c1.5,1.3,6.3,1.4,8.5,3.2c0.1,6.2,2.6,15.4,5.2,16.9C278.8,354.5,282.3,352.7,280.3,346.8z"/>
		<path class="st5" d="M269.8,318.3c-0.4,1.5-3.5,4.2-8.5,4.4c-5,0.2-18.1-0.1-20.8-1.7c-0.4-0.2,3.6-15.3,3.6-15.3
			s20.8,7.4,20.6,7.2C264.5,312.7,269.8,318.3,269.8,318.3z"/>
		<path class="st4" d="M251.6,355.6c-1.2,4.2-0.3,5.1-1.2,6.8c-0.8,1.7-0.6,5.6,3.9,7.2c4.5,1.6,6.6,0.4,9.3-11.4
			c2.7-11.8-5.1-10.8-5.1-10.8L251.6,355.6z"/>
		<g>
			<path class="st28" d="M249.5,317c-1.4-0.4-2.2-1.8-1.8-3.1l2.7-9.6c0.4-1.4,1.8-2.2,3.2-1.8l12.1,3.2c1.4,0.4,2.2,1.8,1.8,3.1
				l-2.7,9.6c-0.4,1.4-1.8,2.2-3.2,1.8L249.5,317z"/>
			<g>
				<g>
					<path class="st29" d="M261.4,318c-0.3,0-0.6,0-1-0.2l-8.7-2.3c-0.8-0.2-1.3-0.5-1.5-0.9c-0.2-0.4-0.2-0.9,0-1.7l1.9-6.7
						c0.4-1.3,0.7-1.7,1.5-1.7c0.3,0,0.7,0.1,1.2,0.2l8.7,2.3c0.9,0.2,1.4,0.5,1.6,0.9c0.2,0.4,0.2,0.9,0,1.7l-1.9,6.7
						C262.7,317.8,262,318,261.4,318z"/>
					<g>
						<path class="st28" d="M253.5,304.9L253.5,304.9c0.3,0,0.7,0.1,1.1,0.2l8.7,2.3c0.8,0.2,1.2,0.4,1.4,0.7
							c0.2,0.3,0.1,0.8-0.1,1.5l-1.9,6.7c-0.4,1.3-0.9,1.4-1.4,1.4c-0.3,0-0.6,0-0.9-0.1l-8.7-2.3c-0.7-0.2-1.2-0.4-1.4-0.8
							c-0.2-0.3-0.2-0.8,0-1.5l1.9-6.7C252.7,305,253,304.9,253.5,304.9 M253.5,304.3c-1,0-1.4,0.6-1.8,1.9l-1.9,6.7
							c-0.5,1.7,0,2.5,1.8,3l8.7,2.3c0.4,0.1,0.8,0.2,1.1,0.2c1,0,1.6-0.5,2-1.9l1.9-6.7c0.5-1.7,0.1-2.5-1.8-3l-8.7-2.3
							C254.3,304.4,253.9,304.3,253.5,304.3L253.5,304.3z"/>
					</g>
				</g>
			</g>
			<path class="st30" d="M264.6,318.8c0,0,0.8-0.5,1.8-0.2c1.1,0.3,3.8,1,3.8,1s1.7,0.6,3.1-4.2l0,0.1c1.3-4.8-0.5-5.1-0.5-5.1
				s-2.8-0.7-3.8-1c-1.1-0.3-1.5-1.1-1.5-1.1L264.6,318.8z"/>
			<path class="st30" d="M247.5,314.3c0,0-0.4-0.8-1.5-1.1c-1.1-0.3-3.8-1-3.8-1s-1.8-0.3-0.5-5.1l0,0.1c1.3-4.8,3.1-4.2,3.1-4.2
				s2.8,0.7,3.8,1c1.1,0.3,1.8-0.2,1.8-0.2L247.5,314.3z"/>
		</g>
		<path class="st31" d="M252.9,303.6l12.8,3.4c0.8,0.2,1.5,0.8,1.8,1.5c0.2-1.2-0.6-2.5-1.9-2.8l-12.1-3.2c-1.4-0.4-2.8,0.4-3.2,1.7
			C251,303.6,252,303.3,252.9,303.6z"/>
		<path class="st32" d="M262.1,319.2l-12.8-3.4c-0.8-0.2-1.5-0.8-1.8-1.5c-0.2,1.2,0.6,2.5,1.9,2.8l12.1,3.2
			c1.4,0.4,2.8-0.4,3.2-1.7C264.1,319.1,263.1,319.4,262.1,319.2z"/>
		<path class="st5" d="M389.7,160.5c-25.3,0-35.7,4.1-40.1,6c-10.8,4.8-18.2,10-18.2,10s27.3-16.6,59.6-10.7c0,0-0.9-6.2,10.9-7.6
			c11.8-1.4,1.2-3.6-0.1-3.3c-1.3,0.3,2,0.3,2,0.3L389.7,160.5z"/>
	</g>
	<g>
		<g>
			<path class="st15" d="M595.5,591c-6.8-4.1-17.3,0.4-22.5,1.9c-8.7,2.5-10.1,4.5-11.7,9.1C560.9,603,596.3,591.5,595.5,591z"/>
		</g>
	</g>
	<path class="st33" d="M714,254.1l-133.2,64.1c-5.5,2.4-8.5,8.9-6.6,14.7l151.7-60.1l0.7-14.5C724,253.9,718.8,252.1,714,254.1z"/>
	<g>
		<path class="st34" d="M794.3,757.7c-3.1,4.3-8.1,6.9-13.4,6.9h-140c-9,0-16.4-7.3-16.4-16.4c0-9,7.3-16.4,16.4-16.4h117.2
			c-30.2-94.8-46.5-202.6-45.7-299.1c0.2-25.7,1.6-50.5,4.3-74.1c0.1-0.7,0.2-1.4,0.4-2.1c1.9-7.9,9.4-13.3,17.7-12.3
			c7,0.8,12.5,5.9,14.1,12.3c0.5,1.8,0.6,3.8,0.4,5.8c-2.5,22.2-3.8,45.8-4,70.4c-0.3,36.7,2,75.8,6.8,115.5
			c8.2,67.9,23.6,135.2,44.3,194.5C798.1,747.8,797.3,753.3,794.3,757.7z"/>
		<path class="st35" d="M749.3,362.2c-2.5,22.2-3.8,45.8-4,70.4h-32.8c0.2-25.7,1.6-50.5,4.3-74.1c0.1-0.7,0.2-1.4,0.4-2.1h31.8
			C749.4,358.3,749.5,360.2,749.3,362.2z"/>
		<path class="st35" d="M796.2,755.2c-0.4,0.9-0.9,1.7-1.4,2.5c-3.1,4.3-8.1,6.9-13.4,6.9h-50.6v-9.4H796.2z"/>
		<path class="st36" d="M781.6,757.7c-3.1,4.3-8.1,6.9-13.4,6.9h-140c-9.1,0-16.4-7.3-16.4-16.4c0-9,7.3-16.4,16.4-16.4h117.2
			c-6.5-20.3-12.3-41.3-17.5-62.6h33.8c6.4,25.5,13.7,50.1,21.9,73.6C785.5,747.8,784.7,753.3,781.6,757.7z"/>
		<path class="st36" d="M478.9,756.3c-3.1,4.3-8.1,6.9-13.4,6.9H106c-9.1,0-16.4-7.3-16.4-16.4c0-9,7.3-16.4,16.4-16.4h117.2
			c-6.5-20.3-8.6-26.5-13.8-47.8l35.2,4.8C251,713,472.8,718,481,741.5C482.8,746.5,482,752,478.9,756.3z"/>
	</g>
	<g>
		<path class="st35" d="M761.8,669.2H728c-21-86.7-30.9-179.3-27.6-261.6c0.2-4.2,0.4-8.3,0.6-12.5c0.7-12.3,1.7-24.3,3-36
			c0-0.2,0-0.4,0.1-0.6c0-0.2,0-0.4,0.1-0.6c1.3-8.7,9.2-14.9,18-13.9c7.5,0.9,13.3,6.7,14.4,13.9c0.2,1.4,0.2,2.8,0.1,4.3
			c-0.9,7.6-1.6,15.4-2.2,23.3c-3.7,49.6-2,105.3,4.9,162.7C744.4,589.3,752,630.2,761.8,669.2z"/>
	</g>
	<path class="st35" d="M848.5,293.3c-0.3,4.4-2.1,9-4.9,11.9l-36,37.9c0,0-6.6,6-9.5,7.3c-1.3,0.6-2.9,1.3-4.6,2.2
		c-20,9.4-66.4,31.1-76.1,35.6c-3,1.4-5.4,1.8-7.4,1.5l-0.1,0.1H548.1l35.6-37.2l56.8-59.2l29.6-26.4l161.3-4.3
		c4.1,0.1,7.9,2.7,9.3,6.9l7.3,17.4C848.4,288.9,848.6,291.1,848.5,293.3z"/>
	<path class="st36" d="M793.5,352.5c-20,9.4-66.4,31.1-76.1,35.6c-3,1.4-5.4,1.8-7.4,1.5l-0.1,0.1H548.1l35.6-37.2H793.5z"/>
	<path class="st37" d="M848.5,293.3H640.5l30.1-30.7h160.7c4.1,0.1,7.9,2.7,9.3,6.9l7.3,17.4C848.5,288.9,848.7,291.1,848.5,293.3z"
		/>
	<g>
		<g>
			<path class="st36" d="M824.1,691.2v6.4c0,1.6-0.1,3.1-0.3,4.6c-2.3,22.1-21.1,39.4-43.8,39.4l-176.3,0c-1.2,0-2.4,0-3.6-0.1
				c-22.6-1.6-40.4-18.4-40.4-41.2l20.5-20.7l30.5-30.8h168.9c0.8,0,1.5-0.1,2.3-0.1c11.4,0,22,4.4,30,12.3
				c5.2,5.2,8.9,11.6,10.8,18.5C823.5,683.3,824.1,687.2,824.1,691.2z"/>
			<path class="st38" d="M823.8,702.3c-2.3,22.1-21.1,39.4-43.8,39.4l-176.3,0c-1.2,0-2.4,0-3.6-0.1c10.6-11.6,21.1-22.3,21.1-22.3
				h153.7c25.5,0,46.2,0.4,47.8-13.8C822.6,704,823.1,703,823.8,702.3z"/>
			<path class="st37" d="M822.5,679.6H580l30.5-30.8h168.9c0.8,0,1.5-0.1,2.3-0.1c11.4,0,22,4.4,30,12.3
				C816.9,666.3,820.6,672.7,822.5,679.6z"/>
			<g>
				<path class="st39" d="M107.5,757.2c-20.7,0-37.5-16.6-37.5-37c0-20.9,17.2-38.8,38.4-39.9c0,0,489.2-25.5,504.8-26.3
					c0.5,0,1.1,0,1.6,0c18.6,0,33.1,16.4,33.1,37.3v6.6c0,21.6-10.8,39-24.5,39.5L109,757.1C108.5,757.1,108,757.2,107.5,757.2z"/>
				<path class="st40" d="M614.8,659.9c15,0,27.1,13.8,27.1,31.3v6.6c0,18-8.4,33.1-18.8,33.5c-10.3,0.4-26.4,1-35.7,1.4
					c-9.3,0.4-31.7,1.2-49.7,1.9l-428.9,16.6c-0.4,0-0.9,0-1.3,0c-17.4,0-31.5-13.7-31.5-31c0-17.7,14.7-33,32.7-33.9l410.4-21.4
					c18-0.9,40.2-2.1,49.3-2.6c9.1-0.5,29.4-1.5,45-2.3C613.9,659.9,614.4,659.9,614.8,659.9 M614.8,647.9L614.8,647.9
					c-0.6,0-1.3,0-1.9,0c-15.6,0.8-35.8,1.9-45,2.3c-9.1,0.5-31.4,1.6-49.4,2.6l-410.4,21.4C83.8,675.5,64,696.1,64,720.2
					c0,11.6,4.5,22.5,12.8,30.6c8.2,8,19.1,12.4,30.7,12.4c0.6,0,1.2,0,1.8,0l428.9-16.6l49.7-1.9l35.7-1.4
					c9.2-0.4,17.7-6.3,23.3-16.3c4.5-8.1,7-18.5,7-29.2v-6.6c0-11.4-3.9-22-10.9-30.1C635.6,652.6,625.6,647.9,614.8,647.9
					L614.8,647.9z"/>
				<g>
					<path class="st36" d="M614.8,671.9c8.3,0,15.1,8.7,15.1,19.3v6.6c0,13-5.3,20.6-7.4,21.5l-35.6,1.4l-49.7,1.9l-428.9,16.6
						c-0.3,0-0.6,0-0.8,0c-10.9,0-19.4-8.3-19.4-19c0-11.3,9.8-21.3,21.3-21.9l410.4-21.4c18-0.9,40.2-2.1,49.3-2.6
						c9.1-0.5,29.4-1.5,45-2.3C614.4,671.9,614.6,671.9,614.8,671.9L614.8,671.9 M614.8,659.9c-0.4,0-0.9,0-1.3,0
						c-15.6,0.8-35.8,1.9-45,2.3c-9.1,0.5-31.3,1.6-49.3,2.6l-410.4,21.4c-18,0.9-32.7,16.2-32.7,33.9c0,17.3,14,31,31.5,31
						c0.4,0,0.9,0,1.3,0l428.9-16.6c18-0.7,40.4-1.6,49.7-1.9c9.3-0.4,25.4-1,35.7-1.4c10.3-0.4,18.8-15.5,18.8-33.5v-6.6
						C641.9,673.7,629.8,659.9,614.8,659.9L614.8,659.9z"/>
				</g>
			</g>
			<circle class="st41" cx="107" cy="719.3" r="20.5"/>
		</g>
		<path class="st42" d="M604.3,732l-33.9,1.3c-7-22.8-13.2-46.3-18.5-70.2l33.2-1.7C590.7,685.7,597.2,709.3,604.3,732z"/>
		<path class="st42" d="M566,719.2H408.4c-12.5,0-22.7,10.2-22.7,22.7s10.2,22.7,22.7,22.7h171.7L566,719.2z"/>
	</g>
	<g>
		<path class="st34" d="M636.7,755.2c-0.4,0.9-0.9,1.7-1.4,2.5c-3.1,4.3-8.1,6.9-13.4,6.9h-140c-9,0-16.4-7.3-16.4-16.4
			c0-9.1,7.3-16.4,16.4-16.4h117.2c-30.2-94.8-46.5-202.6-45.7-299.1c0.2-25.7,1.6-50.5,4.3-74.1c0.1-0.7,0.2-1.4,0.4-2.1
			c1.9-7.9,9.4-13.2,17.7-12.3c7,0.8,1.1,7.2,2.8,13.7c0.5,1.8,0.2,6.5,0,8.5c-2.5,22.2,7.8,41.7,7.7,66.4
			c-0.3,36.8,2,75.8,6.8,115.5c8.2,67.9,23.6,135.2,44.3,194.6C638.8,746.9,638.5,751.3,636.7,755.2z"/>
		<path class="st35" d="M590.3,362.2c-2.5,22.2-3.8,45.8-4,70.4h-32.8c0.2-25.7,1.6-50.5,4.3-74.1c0.1-0.7,0.2-1.4,0.4-2.1h31.8
			C590.4,358.3,590.5,360.2,590.3,362.2z"/>
		<polygon class="st36" points="576,378.4 595.7,378.4 592.9,361.4 		"/>
		<path class="st35" d="M636.7,755.2c-0.4,0.9-0.9,1.7-1.4,2.5c-3.1,4.3-8.1,6.9-13.4,6.9h-50.6v-9.4H636.7z"/>
	</g>
	<g>
		<path class="st43" d="M586.5,731.8c-38.3-120-54.1-260.9-41.4-373.2c1-9,9.1-15.5,18.1-14.4c9,1,15.5,9.1,14.4,18.1
			c-6.2,55.2-5.3,119.5,2.8,186c8.2,67.9,23.5,135.2,44.3,194.5c1.8,5,1,10.6-2.1,14.9c-3.1,4.3-8.1,6.9-13.4,6.9"/>
		<g>
			<g>
				<path class="st36" d="M562,348.9l-8,0.7l-37.4,3.1l-85.5,7.2c-0.2,0-0.5,0-0.7,0c-4.3,0-8-3.3-8.4-7.7c-0.1-1,0-2,0.3-2.9
					c0.8-2.9,3.1-5.2,6.1-6c0,0,0,0,0,0c0,0,0.1,0,0.1,0c0.4-0.1,0.8-0.2,1.2-0.2l97.5-8.1c0,0,0,0,0,0l26.4-2.2l1.9-0.2h0l0.8-0.1
					l4.3-0.4c4.7-0.4,8.7,3.1,9.1,7.7C570.1,344.5,566.6,348.6,562,348.9z"/>
			</g>
			<g>
				<path class="st35" d="M557.9,335.5c0.2,2.3-1.4,4.3-3.6,4.7c-0.1,0-0.2,0-0.3,0l-36.8,3.2l-90.7,7.9c-0.1,0-0.3,0-0.4,0
					c-1.6,0-3-0.9-3.8-2.2c0.8-2.9,3.1-5.2,6.1-6c0,0,0,0,0,0c0,0,0.1,0,0.1,0c0.4-0.1,0.8-0.2,1.2-0.2l97.5-8.1c0,0,0,0,0,0
					l26.4-2.2l1.9-0.2h0l0.8-0.1C557.2,333.2,557.8,334.2,557.9,335.5z"/>
			</g>
			<path class="st36" d="M554.6,347.7c0,0.7-0.2,1.3-0.6,1.9l-37.4,3.1c-0.8-2.9,0.2-6.1,2-9c2.4-4,6.2-7.4,8.6-8.8c0,0,0,0,0,0
				c0.6-0.3,1.1-0.5,1.5-0.6c0,0,0,0,0,0l24.7-2.2c0,0,0.1,0,0.1,0c0.1,0.2,0.1,0.4,0.2,0.6c0.3,1,0.4,1.7,0.4,1.7s0.2,2.8,0.4,6.1
				C554.5,342.9,554.6,345.6,554.6,347.7z"/>
		</g>
		<path class="st36" d="M660.2,282.2l-36,37.9c0,0-6.6,6-9.5,7.3c-16.2,7.6-61,43.1-71.3,48.5c-6.3,3.3-18.4-24-35.5-22.5
			c-6.1,0.5,8.4-6.7,9.5-7.4l123.1-56.5c4.3-1.8,1.2-1.2,3.9,2.1c0.8,1,10.7-15.9,11.1-14.6l6.2-0.4
			C663.6,282.4,664.4,277.9,660.2,282.2z"/>
	</g>
	<path class="st43" d="M681.5,305.2l-36,37.9c0,0-6.6,6-9.5,7.3c-16.2,7.6-70.2,32.8-80.7,37.7c-12.4,5.8-15.8-6.2-15.8-6.2
		l-13.9-38.2c-0.2-0.5-0.3-0.9-0.3-1.4c-1-5.4,1.9-11.1,7-13.3l133.2-64.1c4.3-1.8,8.9-0.6,11.6,2.7c0.8,1,1.4,2.1,1.9,3.4l6.8,15.9
		C687.5,292.7,685.7,300.9,681.5,305.2z"/>
	<path class="st37" d="M680.4,274.5c0,0-2.5-7.3-11.6-2.8c-9.1,4.5-143.5,70.6-143.5,70.6c-1-5.4,1.9-11.1,7-13.3l135.8-65.7
		C672.2,261.5,677.9,264.9,680.4,274.5z"/>
	<path class="st43" d="M594,715H421.8c-13.7,0-24.8,11.1-24.8,24.8s11.1,24.8,24.8,24.8h187.4L594,715z"/>
	<path class="st44" d="M798,277.9c-0.4,4.3-7.8,10.3-12.1,10.3h-47.4c-4.3,0-10.3-2.5-13.3-5.6l-15.8-16.3c0,0-2.2-3.7-8.6-3.7h80.5
		l12.2,0.9L798,277.9z"/>
	<path class="st33" d="M796.8,262.7l3.7,12.1c-0.3,3.6-6.5,8.6-10.1,8.6h-51c-3.6,0-8.6-2.1-11.1-4.7L715,265c0,0-1.9-2.4-7.3-2.4
		c-5.3,0,14.4-4.5,14.4-4.5L796.8,262.7z"/>
	<g>
		<path class="st45" d="M800.6,274.1c-0.4,3.6-3.6,6.5-7.2,6.5h-48.8c-3.6,0-8.6-2.1-11.1-4.7L716,258c-2.5-2.6-1.6-4.7,2-4.7h78.1
			c3.6,0,6.3,2.9,5.9,6.5L800.6,274.1z"/>
	</g>
	<ellipse class="st36" cx="102.9" cy="719.3" rx="11.1" ry="10.9"/>
	<polygon class="st35" points="748.1,373.7 733.6,373.7 730.9,391.8 741.2,391.8 	"/>
	<path class="st36" d="M736.6,362.2c-0.9,7.6-1.6,15.4-2.2,23.3c-5.4,2.5-23.2,14.6-34.1,22c0.2-4.2,0.4-8.3,0.6-12.5
		c0.7-12.3,1.7-24.3,3-36c0-0.2,0-0.4,0.1-0.6c0-0.2,0-0.4,0.1-0.6h32.4C736.7,359.4,736.8,360.8,736.6,362.2z"/>
	<g>
		<path class="st47" d="M440.4,135.3c-0.4,0.1-0.8,0.1-1.2,0.1c-6.2,0.2-9.6,0.5-9.7-3c0-0.3,0-0.6,0.1-0.9
			c1.2-4.1,11.2-4.9,14.1-2.2C445.8,131.3,444.8,134.6,440.4,135.3z"/>
		<path class="st48" d="M440.4,135.3c-0.4,0.1-0.8,0.1-1.2,0.1c-6.2,0.2-9.6,0.5-9.7-3c0-0.3,0-0.6,0.1-0.9
			C433.5,131.4,438.4,132.1,440.4,135.3z"/>
	</g>
	<path class="st4" d="M415.4,97.1c4.9-0.9,11.3-2.5,14.8,0c3.6,2.5-5.2,6-5.2,6C417.2,104.5,415.4,97.1,415.4,97.1z"/>
	<path class="st5" d="M402.9,95.8c-1,4.7-10.2,11.6-3.1,14C406.6,112,402.9,95.8,402.9,95.8z"/>
	<path class="st4" d="M444.7,98.2c4.9-0.9,11.3-2.5,14.8,0c3.6,2.5-5.2,6-5.2,6C446.5,105.6,444.7,98.2,444.7,98.2z"/>
	<path class="st49" d="M471.2,76.7c3.3,1.3,10.7,5.9,6,9C472.5,88.9,471.2,76.7,471.2,76.7z"/>
	<path class="st49" d="M402.7,95.7c-0.6,4.1-8.1,10.7-1.8,12.3C407,109.5,402.7,95.7,402.7,95.7z"/>
</g>
<path class="st4" d="M340.5,196.8c-1.8,10.5,11.4,15.4,16.1,11.8c4.7-3.6,6.4,0,5.3,9.2c-0.8,7.1,17.6-18.8,13.3-22.4
	c-4.3-3.6-17-8.7-19.5-8.3C353.1,187.3,340.5,196.8,340.5,196.8z"/>
</svg>
