<?xml version="1.0" encoding="utf-8"?>
<!-- Generator: Adobe Illustrator 21.1.0, SVG Export Plug-In . SVG Version: 6.00 Build 0)  -->
<svg version="1.1" id="f9eb83fe-2109-496c-8de2-d29751931755"
	 xmlns="http://www.w3.org/2000/svg" xmlns:xlink="http://www.w3.org/1999/xlink" x="0px" y="0px" viewBox="0 0 1166.2 805.1"
	 style="enable-background:new 0 0 1166.2 805.1;" xml:space="preserve">
<style type="text/css">
	.st0{opacity:0.1;fill:#02B76F;enable-background:new    ;}
	.st1{fill:#02B76F;}
	.st2{fill:#3F3D56;}
	.st3{fill:#FFFFFF;}
	.st4{opacity:0.8;fill:#FA5959;enable-background:new    ;}
	.st5{opacity:0.8;fill:#FED253;enable-background:new    ;}
	.st6{opacity:0.8;fill:#8CCF4D;enable-background:new    ;}
	.st7{opacity:5.000000e-02;enable-background:new    ;}
	.st8{opacity:0.7;}
	.st9{fill:url(#SVGID_1_);}
	.st10{fill:#3AD29F;}
</style>
<title>authentication</title>
<path class="st0" d="M659.6,109.6c-74.8,0.1-146.7-21.1-215.5-44.6S307,15.1,233.6,3.9C186.4-3.3,132.8-2.6,95.9,23.5
	C60.4,48.5,50.1,90,45.2,128.4c-3.7,28.9-5.5,59.1,8.5,85.5c9.7,18.3,26.3,33.4,38,50.9c40.8,60.7,16.3,138.3-23.4,200.5
	c-18.6,29.2-40.4,57.1-54.5,87.9S-6,619,8.3,649.4c14.2,30.2,46.3,52,80.8,67c70,30.4,151.5,36.9,230.8,39.5
	c175.6,5.6,351.5-5.8,526.9-17.2c64.9-4.2,130.1-8.4,193.7-20.6c35.3-6.8,71.7-16.8,96.7-38.7c31.8-27.9,38.3-73.4,15.2-106.1
	c-38.8-54.9-141-65.2-168.8-124.6c-15.3-32.7-2.1-70.2,17.4-101.7c41.8-67.6,113.6-128.2,114.8-203.8
	c0.8-51.9-36.6-102.6-92.4-125.2C964.9-5.6,885.1,0.5,844.1,44.5C801.9,89.9,725.6,109.5,659.6,109.6z"/>
<path class="st1" d="M992.5,645.4c0,0-12.3-8.1-24.5-2.3c0,0,3.8,7.2,19.2,6.5L992.5,645.4z"/>
<path class="st1" d="M994.1,645.8c0,0,3.7,14.2-5.6,23.9c0,0-5.6-5.9,0-20.2L994.1,645.8z"/>
<path class="st1" d="M1009.4,632.1c0,0-0.9-12.1-28.3-8.1c0,0-0.1,7.8,9.5,11.5S1004.6,636.1,1009.4,632.1z"/>
<path class="st1" d="M1011.1,632c0,0,11.6,3.7,1.2,29.4c0,0-7.6-1.7-9-11.9S1006,635.8,1011.1,632z"/>
<path class="st1" d="M1026.5,614.9c0,0,1.6-19.9-26.4-17.9c0,0-2,18,21.4,22.7L1026.5,614.9z"/>
<path class="st1" d="M1045,592.4c0,0-3.8-22.6-31.8-15.9c0,0-0.1,19.5,27.2,21.2L1045,592.4z"/>
<path class="st1" d="M1027.3,614.7c0,0,19.8-2.6,19.2,25.4c0,0-17.9,2.9-23.8-20.2L1027.3,614.7z"/>
<path class="st2" d="M1039.4,85.2H78.5c-4.7,0-8.6,3.8-8.6,8.6v24.9h978V93.8C1048,89.1,1044.1,85.2,1039.4,85.2z"/>
<path class="st3" d="M70,118.7V680c0,9.5,7.7,17.3,17.3,17.3c0,0,0,0,0,0h943.5c9.5,0,17.3-7.7,17.3-17.3l0,0V118.7H70z"/>
<circle class="st4" cx="85.4" cy="101.7" r="4"/>
<circle class="st5" cx="96.4" cy="101.7" r="4"/>
<circle class="st6" cx="107.4" cy="101.7" r="4"/>
<rect x="160.9" y="212.3" class="st7" width="786" height="345.6"/>
<rect x="166.9" y="214.9" class="st2" width="774" height="338"/>
<path class="st1" d="M377.9,301.9c-42.5,0-77,34.5-77,77s34.5,77,77,77s77-34.5,77-77S420.4,301.9,377.9,301.9L377.9,301.9z
	 M391.7,380.8v36.5h-27.2v-36.5c-9.9-7.5-11.9-21.7-4.4-31.6s21.7-11.9,31.6-4.4s11.9,21.7,4.4,31.6
	C394.8,378.1,393.3,379.5,391.7,380.8z"/>
<path class="st7" d="M377.9,301.9c-42.5,0-77,34.5-77,77s34.5,77,77,77s77-34.5,77-77S420.4,301.9,377.9,301.9L377.9,301.9z
	 M391.7,380.8v36.5h-27.2v-36.5c-9.9-7.5-11.9-21.7-4.4-31.6s21.7-11.9,31.6-4.4s11.9,21.7,4.4,31.6
	C394.8,378.1,393.3,379.5,391.7,380.8z"/>
<path class="st1" d="M377.9,279.9c-54.7,0-99,44.3-99,99s44.3,99,99,99s99-44.3,99-99l0,0C476.9,324.2,432.5,279.9,377.9,279.9z
	 M395.6,381.3v46.9h-35v-46.9c-12.8-9.7-15.3-27.9-5.6-40.6s27.9-15.3,40.6-5.6s15.3,27.9,5.6,40.6
	C399.6,377.8,397.7,379.7,395.6,381.3z"/>
<rect x="517.9" y="365.9" class="st3" width="320" height="34"/>
<rect x="768.9" y="427.9" class="st1" width="69" height="34"/>
<path class="st1" d="M549.4,382.4h-5.8l5.2-5.1c0.2-0.2,0.2-0.5,0-0.7c-0.2-0.2-0.5-0.2-0.7,0c0,0,0,0,0,0l-5.2,5.1v-5.8
	c0-0.3-0.2-0.5-0.5-0.5c-0.3,0-0.5,0.2-0.5,0.5v5.8l-5.1-5.2c-0.2-0.2-0.5-0.2-0.7,0c0,0,0,0,0,0c-0.2,0.2-0.2,0.5,0,0.7l5.2,5.1
	h-5.8c-0.3,0-0.5,0.2-0.5,0.5c0,0.3,0.2,0.5,0.5,0.5h5.8l-5.2,5.1c-0.2,0.2-0.2,0.5,0,0.7c0.2,0.2,0.5,0.2,0.7,0l5.1-5.1v5.8
	c0,0.3,0.2,0.5,0.5,0.5s0.5-0.2,0.5-0.5v-5.8l5.2,5.1c0.2,0.2,0.5,0.2,0.7,0c0.2-0.2,0.2-0.5,0-0.7l-5.2-5.1h5.8
	c0.3,0,0.5-0.2,0.5-0.5C549.9,382.6,549.6,382.4,549.4,382.4z"/>
<path class="st1" d="M570.4,382.4h-5.8l5.2-5.1c0.2-0.2,0.2-0.5,0-0.7c-0.2-0.2-0.5-0.2-0.7,0c0,0,0,0,0,0l-5.2,5.1v-5.8
	c0-0.3-0.2-0.5-0.5-0.5c-0.3,0-0.5,0.2-0.5,0.5v5.8l-5.1-5.2c-0.2-0.2-0.5-0.2-0.7,0c0,0,0,0,0,0c-0.2,0.2-0.2,0.5,0,0.7l5.2,5.1
	h-5.8c-0.3,0-0.5,0.2-0.5,0.5c0,0.3,0.2,0.5,0.5,0.5h5.8l-5.2,5.1c-0.2,0.2-0.2,0.5,0,0.7c0.2,0.2,0.5,0.2,0.7,0l5.1-5.1v5.8
	c0,0.3,0.2,0.5,0.5,0.5s0.5-0.2,0.5-0.5v-5.8l5.2,5.1c0.2,0.2,0.5,0.2,0.7,0c0.2-0.2,0.2-0.5,0-0.7l-5.2-5.1h5.8
	c0.3,0,0.5-0.2,0.5-0.5C570.9,382.6,570.6,382.4,570.4,382.4z"/>
<path class="st1" d="M591.4,382.4h-5.8l5.2-5.1c0.2-0.2,0.2-0.5,0-0.7c-0.2-0.2-0.5-0.2-0.7,0c0,0,0,0,0,0l-5.2,5.1v-5.8
	c0-0.3-0.2-0.5-0.5-0.5c-0.3,0-0.5,0.2-0.5,0.5v5.8l-5.1-5.2c-0.2-0.2-0.5-0.2-0.7,0c0,0,0,0,0,0c-0.2,0.2-0.2,0.5,0,0.7l5.2,5.1
	h-5.8c-0.3,0-0.5,0.2-0.5,0.5c0,0.3,0.2,0.5,0.5,0.5h5.8l-5.2,5.1c-0.2,0.2-0.2,0.5,0,0.7c0.2,0.2,0.5,0.2,0.7,0l5.1-5.1v5.8
	c0,0.3,0.2,0.5,0.5,0.5s0.5-0.2,0.5-0.5v-5.8l5.2,5.1c0.2,0.2,0.5,0.2,0.7,0c0.2-0.2,0.2-0.5,0-0.7l-5.2-5.1h5.8
	c0.3,0,0.5-0.2,0.5-0.5C591.9,382.6,591.6,382.4,591.4,382.4z"/>
<path class="st1" d="M612.4,382.4h-5.8l5.2-5.1c0.2-0.2,0.2-0.5,0-0.7c-0.2-0.2-0.5-0.2-0.7,0c0,0,0,0,0,0l-5.2,5.1v-5.8
	c0-0.3-0.2-0.5-0.5-0.5c-0.3,0-0.5,0.2-0.5,0.5v5.8l-5.1-5.2c-0.2-0.2-0.5-0.2-0.7,0c0,0,0,0,0,0c-0.2,0.2-0.2,0.5,0,0.7l5.2,5.1
	h-5.8c-0.3,0-0.5,0.2-0.5,0.5c0,0.3,0.2,0.5,0.5,0.5h5.8l-5.2,5.1c-0.2,0.2-0.2,0.5,0,0.7c0.2,0.2,0.5,0.2,0.7,0l5.1-5.1v5.8
	c0,0.3,0.2,0.5,0.5,0.5s0.5-0.2,0.5-0.5v-5.8l5.2,5.1c0.2,0.2,0.5,0.2,0.7,0c0.2-0.2,0.2-0.5,0-0.7l-5.2-5.1h5.8
	c0.3,0,0.5-0.2,0.5-0.5C612.9,382.6,612.6,382.4,612.4,382.4z"/>
<path class="st1" d="M633.4,382.4h-5.8l5.2-5.1c0.2-0.2,0.2-0.5,0-0.7c-0.2-0.2-0.5-0.2-0.7,0c0,0,0,0,0,0l-5.2,5.1v-5.8
	c0-0.3-0.2-0.5-0.5-0.5c-0.3,0-0.5,0.2-0.5,0.5v5.8l-5.1-5.2c-0.2-0.2-0.5-0.2-0.7,0c0,0,0,0,0,0c-0.2,0.2-0.2,0.5,0,0.7l5.2,5.1
	h-5.8c-0.3,0-0.5,0.2-0.5,0.5c0,0.3,0.2,0.5,0.5,0.5h5.8l-5.2,5.1c-0.2,0.2-0.2,0.5,0,0.7c0.2,0.2,0.5,0.2,0.7,0l5.1-5.1v5.8
	c0,0.3,0.2,0.5,0.5,0.5s0.5-0.2,0.5-0.5v-5.8l5.2,5.1c0.2,0.2,0.5,0.2,0.7,0c0.2-0.2,0.2-0.5,0-0.7l-5.2-5.1h5.8
	c0.3,0,0.5-0.2,0.5-0.5C633.9,382.6,633.6,382.4,633.4,382.4z"/>
<path class="st1" d="M654.4,382.4h-5.8l5.2-5.1c0.2-0.2,0.2-0.5,0-0.7c-0.2-0.2-0.5-0.2-0.7,0c0,0,0,0,0,0l-5.2,5.1v-5.8
	c0-0.3-0.2-0.5-0.5-0.5c-0.3,0-0.5,0.2-0.5,0.5v5.8l-5.1-5.2c-0.2-0.2-0.5-0.2-0.7,0c0,0,0,0,0,0c-0.2,0.2-0.2,0.5,0,0.7l5.2,5.1
	h-5.8c-0.3,0-0.5,0.2-0.5,0.5c0,0.3,0.2,0.5,0.5,0.5h5.8l-5.2,5.1c-0.2,0.2-0.2,0.5,0,0.7c0.2,0.2,0.5,0.2,0.7,0l5.1-5.1v5.8
	c0,0.3,0.2,0.5,0.5,0.5s0.5-0.2,0.5-0.5v-5.8l5.2,5.1c0.2,0.2,0.5,0.2,0.7,0c0.2-0.2,0.2-0.5,0-0.7l-5.2-5.1h5.8
	c0.3,0,0.5-0.2,0.5-0.5C654.9,382.6,654.6,382.4,654.4,382.4z"/>
<path class="st1" d="M675.4,382.4h-5.8l5.2-5.1c0.2-0.2,0.2-0.5,0-0.7c-0.2-0.2-0.5-0.2-0.7,0c0,0,0,0,0,0l-5.2,5.1v-5.8
	c0-0.3-0.2-0.5-0.5-0.5c-0.3,0-0.5,0.2-0.5,0.5v5.8l-5.1-5.2c-0.2-0.2-0.5-0.2-0.7,0c0,0,0,0,0,0c-0.2,0.2-0.2,0.5,0,0.7l5.2,5.1
	h-5.8c-0.3,0-0.5,0.2-0.5,0.5c0,0.3,0.2,0.5,0.5,0.5h5.8l-5.2,5.1c-0.2,0.2-0.2,0.5,0,0.7c0.2,0.2,0.5,0.2,0.7,0l5.1-5.1v5.8
	c0,0.3,0.2,0.5,0.5,0.5s0.5-0.2,0.5-0.5v-5.8l5.2,5.1c0.2,0.2,0.5,0.2,0.7,0c0.2-0.2,0.2-0.5,0-0.7l-5.2-5.1h5.8
	c0.3,0,0.5-0.2,0.5-0.5C675.9,382.6,675.6,382.4,675.4,382.4z"/>
<path class="st1" d="M696.4,382.4h-5.8l5.2-5.1c0.2-0.2,0.2-0.5,0-0.7c-0.2-0.2-0.5-0.2-0.7,0c0,0,0,0,0,0l-5.2,5.1v-5.8
	c0-0.3-0.2-0.5-0.5-0.5c-0.3,0-0.5,0.2-0.5,0.5v5.8l-5.1-5.2c-0.2-0.2-0.5-0.2-0.7,0c0,0,0,0,0,0c-0.2,0.2-0.2,0.5,0,0.7l5.2,5.1
	h-5.8c-0.3,0-0.5,0.2-0.5,0.5c0,0.3,0.2,0.5,0.5,0.5h5.8l-5.2,5.1c-0.2,0.2-0.2,0.5,0,0.7c0.2,0.2,0.5,0.2,0.7,0l5.1-5.1v5.8
	c0,0.3,0.2,0.5,0.5,0.5s0.5-0.2,0.5-0.5v-5.8l5.2,5.1c0.2,0.2,0.5,0.2,0.7,0c0.2-0.2,0.2-0.5,0-0.7l-5.2-5.1h5.8
	c0.3,0,0.5-0.2,0.5-0.5C696.9,382.6,696.6,382.4,696.4,382.4z"/>
<path class="st1" d="M717.4,382.4h-5.8l5.2-5.1c0.2-0.2,0.2-0.5,0-0.7c-0.2-0.2-0.5-0.2-0.7,0c0,0,0,0,0,0l-5.2,5.1v-5.8
	c0-0.3-0.2-0.5-0.5-0.5c-0.3,0-0.5,0.2-0.5,0.5v5.8l-5.1-5.2c-0.2-0.2-0.5-0.2-0.7,0c0,0,0,0,0,0c-0.2,0.2-0.2,0.5,0,0.7l5.2,5.1
	h-5.8c-0.3,0-0.5,0.2-0.5,0.5c0,0.3,0.2,0.5,0.5,0.5h5.8l-5.2,5.1c-0.2,0.2-0.2,0.5,0,0.7c0.2,0.2,0.5,0.2,0.7,0l5.1-5.1v5.8
	c0,0.3,0.2,0.5,0.5,0.5s0.5-0.2,0.5-0.5v-5.8l5.2,5.1c0.2,0.2,0.5,0.2,0.7,0c0.2-0.2,0.2-0.5,0-0.7l-5.2-5.1h5.8
	c0.3,0,0.5-0.2,0.5-0.5C717.9,382.6,717.6,382.4,717.4,382.4z"/>
<path class="st1" d="M738.4,382.4h-5.8l5.2-5.1c0.2-0.2,0.2-0.5,0-0.7c-0.2-0.2-0.5-0.2-0.7,0c0,0,0,0,0,0l-5.2,5.1v-5.8
	c0-0.3-0.2-0.5-0.5-0.5c-0.3,0-0.5,0.2-0.5,0.5v5.8l-5.1-5.2c-0.2-0.2-0.5-0.2-0.7,0c0,0,0,0,0,0c-0.2,0.2-0.2,0.5,0,0.7l5.2,5.1
	h-5.8c-0.3,0-0.5,0.2-0.5,0.5c0,0.3,0.2,0.5,0.5,0.5h5.8l-5.2,5.1c-0.2,0.2-0.2,0.5,0,0.7c0.2,0.2,0.5,0.2,0.7,0l5.1-5.1v5.8
	c0,0.3,0.2,0.5,0.5,0.5s0.5-0.2,0.5-0.5v-5.8l5.2,5.1c0.2,0.2,0.5,0.2,0.7,0c0.2-0.2,0.2-0.5,0-0.7l-5.2-5.1h5.8
	c0.3,0,0.5-0.2,0.5-0.5C738.9,382.6,738.6,382.4,738.4,382.4z"/>
<path class="st1" d="M759.4,382.4h-5.8l5.2-5.1c0.2-0.2,0.2-0.5,0-0.7c-0.2-0.2-0.5-0.2-0.7,0c0,0,0,0,0,0l-5.2,5.1v-5.8
	c0-0.3-0.2-0.5-0.5-0.5c-0.3,0-0.5,0.2-0.5,0.5v5.8l-5.1-5.2c-0.2-0.2-0.5-0.2-0.7,0c0,0,0,0,0,0c-0.2,0.2-0.2,0.5,0,0.7l5.2,5.1
	h-5.8c-0.3,0-0.5,0.2-0.5,0.5c0,0.3,0.2,0.5,0.5,0.5h5.8l-5.2,5.1c-0.2,0.2-0.2,0.5,0,0.7c0.2,0.2,0.5,0.2,0.7,0l5.1-5.1v5.8
	c0,0.3,0.2,0.5,0.5,0.5s0.5-0.2,0.5-0.5v-5.8l5.2,5.1c0.2,0.2,0.5,0.2,0.7,0c0.2-0.2,0.2-0.5,0-0.7l-5.2-5.1h5.8
	c0.3,0,0.5-0.2,0.5-0.5C759.9,382.6,759.6,382.4,759.4,382.4z"/>
<g class="st8">
	
		<linearGradient id="SVGID_1_" gradientUnits="userSpaceOnUse" x1="814.1508" y1="279.8952" x2="977.5606" y2="279.8952" gradientTransform="matrix(1 0 0 -1 0 805.89)">
		<stop  offset="0" style="stop-color:#808080;stop-opacity:0.25"/>
		<stop  offset="0.54" style="stop-color:#808080;stop-opacity:0.12"/>
		<stop  offset="1" style="stop-color:#808080;stop-opacity:0.1"/>
	</linearGradient>
	<polygon class="st9" points="835.7,503.3 887.5,550.7 951.7,458.1 977.6,479.7 887.5,593.9 814.2,511.9 	"/>
</g>
<polygon class="st10" points="847.9,506.1 889.9,544.6 949.4,457.1 970.4,474.6 889.9,579.6 830.4,513.1 "/>
</svg>
